<?xml version="1.0" encoding="utf-8" standalone="yes"?>
<!DOCTYPE svg PUBLIC "-//W3C//DTD SVG 1.1//EN" "http://www.w3.org/Graphics/SVG/1.1/DTD/svg11.dtd">
<svg width="673" height="518" viewBox="0 0 673 518" style="fill:none;stroke:none;fill-rule:evenodd;clip-rule:evenodd;stroke-linecap:round;stroke-linejoin:round;stroke-miterlimit:1.5;" version="1.1" xmlns="http://www.w3.org/2000/svg" xmlns:xlink="http://www.w3.org/1999/xlink"><style id="fontImports">@import url("https://fonts.googleapis.com/css2?family=Roboto:wght@400;700&amp;display=block");</style><g id="blend" style="mix-blend-mode:multiply"><g id="g-root-1.Vector_sy_146qu6j1ejgx6t-fill" data-item-order="-238262" data-item-id="1.Vector_sy_146qu6j1ejgx6t" data-item-class="ScenePart Indexed Indexed_1 Fill Stroke ColorStrokeBlack" data-item-index="1" data-renderer-id="0" transform="translate(103, 423)"><g id="1.Vector_sy_146qu6j1ejgx6t-fill" stroke="none" fill="url(#gradient-67a1ff-352354018)"><g><path d="M 143.5 10L 106 10L 73 10C 71.343 10 70 11.343 70 13C 70 14.657 71.343 16 73 16L 76 16L 76 34L 43 34C 41.343 34 40 35.343 40 37C 40 38.657 41.343 40 43 40L 46 40L 46 58L 13 58C 11.343 58 10 59.343 10 61C 10 62.657 11.343 64 13 64L 16 64L 16 82L 53.5 82L 143.5 10Z"></path></g></g></g><g id="g-root-2.Vector_sy_vb3txn1ejgxzi-fill" data-item-order="-238260" data-item-id="2.Vector_sy_vb3txn1ejgxzi" data-item-class="ScenePart Indexed Fill Stroke ColorStrokeBlack" data-item-index="2" data-renderer-id="0" transform="translate(194, 351)"><g id="2.Vector_sy_vb3txn1ejgxzi-fill" stroke="none" fill="url(#gradient-44d0ff-453494305)"><g><path d="M 143.5 10L 106 10L 73 10C 71.343 10 70 11.343 70 13C 70 14.657 71.343 16 73 16L 76 16L 76 34L 43 34C 41.343 34 40 35.343 40 37C 40 38.657 41.343 40 43 40L 46 40L 46 58L 13 58C 11.343 58 10 59.343 10 61C 10 62.657 11.343 64 13 64L 16 64L 16 82L 53.5 82L 143.5 10Z"></path></g></g></g><g id="g-root-3.Vector_sy_vb3txn1ejgxzj-fill" data-item-order="-238258" data-item-id="3.Vector_sy_vb3txn1ejgxzj" data-item-class="ScenePart Indexed Fill Stroke ColorStrokeBlack" data-item-index="3" data-renderer-id="0" transform="translate(284, 279)"><g id="3.Vector_sy_vb3txn1ejgxzj-fill" stroke="none" fill="url(#gradient-65e5a8-188701211)"><g><path d="M 143.5 10L 106 10L 73 10C 71.343 10 70 11.343 70 13C 70 14.657 71.343 16 73 16L 76 16L 76 34L 43 34C 41.343 34 40 35.343 40 37C 40 38.657 41.343 40 43 40L 46 40L 46 58L 13 58C 11.343 58 10 59.343 10 61C 10 62.657 11.343 64 13 64L 16 64L 16 82L 53.5 82L 143.5 10Z"></path></g></g></g><g id="g-root-4.Vector_sy_zqxc231ejgxz4-fill" data-item-order="-238256" data-item-id="4.Vector_sy_zqxc231ejgxz4" data-item-class="ScenePart Indexed Fill Stroke ColorStrokeBlack" data-item-index="4" data-renderer-id="0" transform="translate(374, 207)"><g id="4.Vector_sy_zqxc231ejgxz4-fill" stroke="none" fill="url(#gradient-b8e45c-154771520)"><g><path d="M 143.5 10L 106 10L 73 10C 71.343 10 70 11.343 70 13C 70 14.657 71.343 16 73 16L 76 16L 76 34L 43 34C 41.343 34 40 35.343 40 37C 40 38.657 41.343 40 43 40L 46 40L 46 58L 13 58C 11.343 58 10 59.343 10 61C 10 62.657 11.343 64 13 64L 16 64L 16 82L 53.5 82L 143.5 10Z"></path></g></g></g><g id="g-root-5.Vector_sy_qvabt71ejgyrt-fill" data-item-order="-238254" data-item-id="5.Vector_sy_qvabt71ejgyrt" data-item-class="ScenePart Indexed Fill Stroke ColorStrokeBlack" data-item-index="5" data-renderer-id="0" transform="translate(464, 135)"><g id="5.Vector_sy_qvabt71ejgyrt-fill" stroke="none" fill="url(#gradient-ffeb38-392015901)"><g><path d="M 106 10L 143.5 10L 53.5 82L 16 82L 16 64L 13 64C 11.343 64 10 62.657 10 61C 10 59.343 11.343 58 13 58L 46 58L 46 40L 43 40C 41.343 40 40 38.657 40 37C 40 35.343 41.343 34 43 34L 76 34L 76 16L 73 16C 71.343 16 70 14.657 70 13C 70 11.343 71.343 10 73 10L 106 10Z"></path></g></g></g><g id="g-root-6.Vector_sy_qvabt71ejgyru-fill" data-item-order="-238252" data-item-id="6.Vector_sy_qvabt71ejgyru" data-item-class="ScenePart Indexed Fill Stroke ColorStrokeBlack" data-item-index="6" data-renderer-id="0" transform="translate(554, 63)"><defs><linearGradient id="gradient-67a1ff-352354018" x2="0" y2="1"><stop offset="0" stop-color="#7fb0ff"></stop><stop offset="1" stop-color="#4F92FF"></stop></linearGradient><linearGradient id="gradient-44d0ff-453494305" x2="0" y2="1"><stop offset="0" stop-color="#6ddafe"></stop><stop offset="1" stop-color="#1AC6FF"></stop></linearGradient><linearGradient id="gradient-65e5a8-188701211" x2="0" y2="1"><stop offset="0" stop-color="#85eaba"></stop><stop offset="1" stop-color="#44E095"></stop></linearGradient><linearGradient id="gradient-b8e45c-154771520" x2="0" y2="1"><stop offset="0" stop-color="#c8ea80"></stop><stop offset="1" stop-color="#A8DD38"></stop></linearGradient><linearGradient id="gradient-ffeb38-392015901" x2="0" y2="1"><stop offset="0" stop-color="#fff066"></stop><stop offset="1" stop-color="#FFE60A"></stop></linearGradient><linearGradient id="gradient-fba659-170788768" x2="0" y2="1"><stop offset="0" stop-color="#fcb778"></stop><stop offset="1" stop-color="#F99539"></stop></linearGradient></defs><g id="6.Vector_sy_qvabt71ejgyru-fill" stroke="none" fill="url(#gradient-fba659-170788768)"><g><path d="M 106 16L 106 40L 53.5 82L 16 82L 16 64L 13 64C 11.343 64 10 62.657 10 61C 10 59.343 11.343 58 13 58L 46 58L 46 40L 43 40C 41.343 40 40 38.657 40 37C 40 35.343 41.343 34 43 34L 76 34L 76 16L 73 16C 71.343 16 70 14.657 70 13C 70 11.343 71.343 10 73 10L 106 10L 106 16Z"></path></g></g></g><g id="g-root-tx__mg3arv1ejgweb-fill" data-item-order="0" data-item-id="tx__mg3arv1ejgweb" data-item-class="Label Stroke SceneTarget Indexed ColorStrokeBlack" data-item-index="6" data-renderer-id="0" transform="translate(512, 15)"><g id="tx__mg3arv1ejgweb-fill" stroke="none" fill="#484848"><g><text style="font: 20px Roboto, sans-serif; white-space: pre;"><tspan x="16" y="33.5" dominant-baseline="ideographic">契約</tspan></text></g></g></g><g id="g-root-give_dcc4ej1ejjoy1-fill" data-item-order="0" data-item-id="give_dcc4ej1ejjoy1" data-item-class="Icon Stroke SceneTarget Indexed ColorStrokeBlack" data-item-index="6" data-renderer-id="0" transform="translate(572, 3)"></g><g id="g-root-tx__dkgaiz1ejgx70-fill" data-item-order="0" data-item-id="tx__dkgaiz1ejgx70" data-item-class="Label Stroke SceneTarget Indexed ColorStrokeBlack" data-item-index="5" data-renderer-id="0" transform="translate(386, 87)"><g id="tx__dkgaiz1ejgx70-fill" stroke="none" fill="#484848"><g><text style="font: 20px Roboto, sans-serif; white-space: pre;"><tspan x="12" y="33.5" dominant-baseline="ideographic">法務確認</tspan></text></g></g></g><g id="g-root-appr_1q8830r1ejjq4q-fill" data-item-order="0" data-item-id="appr_1q8830r1ejjq4q" data-item-class="Icon Stroke SceneTarget Indexed ColorStrokeBlack" data-item-index="5" data-renderer-id="0" transform="translate(482, 75)"></g><g id="g-root-tx__94msej1ejgxz9-fill" data-item-order="0" data-item-id="tx__94msej1ejgxz9" data-item-class="Label Stroke SceneTarget Indexed ColorStrokeBlack" data-item-index="4" data-renderer-id="0" transform="translate(176, 159)"><g id="tx__94msej1ejgxz9-fill" stroke="none" fill="#484848"><g><text style="font: 20px Roboto, sans-serif; white-space: pre;"><tspan x="12.59" y="33.5" dominant-baseline="ideographic">セキュリティチェック</tspan></text></g></g></g><g id="g-root-chec_1lsekwb1ejjqwz-fill" data-item-order="0" data-item-id="chec_1lsekwb1ejjqwz" data-item-class="Icon Stroke SceneTarget Indexed ColorStrokeBlack" data-item-index="4" data-renderer-id="0" transform="translate(392, 147)"></g><g id="g-root-tx__94msej1ejgxza-fill" data-item-order="0" data-item-id="tx__94msej1ejgxza" data-item-class="Label Stroke SceneTarget Indexed ColorStrokeBlack" data-item-index="3" data-renderer-id="0" transform="translate(206, 231)"><g id="tx__94msej1ejgxza-fill" stroke="none" fill="#484848"><g><text style="font: 20px Roboto, sans-serif; white-space: pre;"><tspan x="12" y="33.5" dominant-baseline="ideographic">経費精算</tspan></text></g></g></g><g id="g-root-paym_18hkjm31ejjpc4-fill" data-item-order="0" data-item-id="paym_18hkjm31ejjpc4" data-item-class="Icon Stroke SceneTarget Indexed ColorStrokeBlack" data-item-index="3" data-renderer-id="0" transform="translate(302, 219)"></g><g id="g-root-tx__8zs5n1ejgyrz-fill" data-item-order="0" data-item-id="tx__8zs5n1ejgyrz" data-item-class="Label Stroke SceneTarget Indexed ColorStrokeBlack" data-item-index="2" data-renderer-id="0" transform="translate(92, 303)"><g id="tx__8zs5n1ejgyrz-fill" stroke="none" fill="#484848"><g><text style="font: 20px Roboto, sans-serif; white-space: pre;"><tspan x="16.8" y="33.5" dominant-baseline="ideographic">ツール評価</tspan></text></g></g></g><g id="g-root-moni_zlxjd71ejjq4t-fill" data-item-order="0" data-item-id="moni_zlxjd71ejjq4t" data-item-class="Icon Stroke SceneTarget Indexed ColorStrokeBlack" data-item-index="2" data-renderer-id="0" transform="translate(212, 291)"></g><g id="g-root-tx__4otaa31ejgyrk-fill" data-item-order="0" data-item-id="tx__4otaa31ejgyrk" data-item-class="Label Stroke SceneTarget Indexed Indexed_1 ColorStrokeBlack" data-item-index="1" data-renderer-id="0" transform="translate(2, 375)"><g id="tx__4otaa31ejgyrk-fill" stroke="none" fill="#484848"><g><text style="font: 20px Roboto, sans-serif; white-space: pre;"><tspan x="16.8" y="33.5" dominant-baseline="ideographic">ツール検証</tspan></text></g></g></g><g id="g-root-hamm_v6418r1ejjqx2-fill" data-item-order="0" data-item-id="hamm_v6418r1ejjqx2" data-item-class="Icon Stroke SceneTarget Indexed Indexed_1 ColorStrokeBlack" data-item-index="1" data-renderer-id="0" transform="translate(122, 363)"></g><g id="g-root-1.Vector_sy_146qu6j1ejgx6t-stroke" data-item-order="-238262" data-item-id="1.Vector_sy_146qu6j1ejgx6t" data-item-class="ScenePart Indexed Indexed_1 Fill Stroke ColorStrokeBlack" data-item-index="1" data-renderer-id="0" transform="translate(103, 423)"><g id="1.Vector_sy_146qu6j1ejgx6t-stroke" fill="none" stroke-linecap="round" stroke-linejoin="round" stroke-miterlimit="1.5" stroke="#484848" stroke-width="2"><g><path d="M 143.5 10L 106 10L 73 10C 71.343 10 70 11.343 70 13C 70 14.657 71.343 16 73 16L 76 16L 76 34L 43 34C 41.343 34 40 35.343 40 37C 40 38.657 41.343 40 43 40L 46 40L 46 58L 13 58C 11.343 58 10 59.343 10 61C 10 62.657 11.343 64 13 64L 16 64L 16 82L 53.5 82L 143.5 10Z"></path></g></g></g><g id="g-root-2.Vector_sy_vb3txn1ejgxzi-stroke" data-item-order="-238260" data-item-id="2.Vector_sy_vb3txn1ejgxzi" data-item-class="ScenePart Indexed Fill Stroke ColorStrokeBlack" data-item-index="2" data-renderer-id="0" transform="translate(194, 351)"><g id="2.Vector_sy_vb3txn1ejgxzi-stroke" fill="none" stroke-linecap="round" stroke-linejoin="round" stroke-miterlimit="1.5" stroke="#484848" stroke-width="2"><g><path d="M 143.5 10L 106 10L 73 10C 71.343 10 70 11.343 70 13C 70 14.657 71.343 16 73 16L 76 16L 76 34L 43 34C 41.343 34 40 35.343 40 37C 40 38.657 41.343 40 43 40L 46 40L 46 58L 13 58C 11.343 58 10 59.343 10 61C 10 62.657 11.343 64 13 64L 16 64L 16 82L 53.5 82L 143.5 10Z"></path></g></g></g><g id="g-root-3.Vector_sy_vb3txn1ejgxzj-stroke" data-item-order="-238258" data-item-id="3.Vector_sy_vb3txn1ejgxzj" data-item-class="ScenePart Indexed Fill Stroke ColorStrokeBlack" data-item-index="3" data-renderer-id="0" transform="translate(284, 279)"><g id="3.Vector_sy_vb3txn1ejgxzj-stroke" fill="none" stroke-linecap="round" stroke-linejoin="round" stroke-miterlimit="1.5" stroke="#484848" stroke-width="2"><g><path d="M 143.5 10L 106 10L 73 10C 71.343 10 70 11.343 70 13C 70 14.657 71.343 16 73 16L 76 16L 76 34L 43 34C 41.343 34 40 35.343 40 37C 40 38.657 41.343 40 43 40L 46 40L 46 58L 13 58C 11.343 58 10 59.343 10 61C 10 62.657 11.343 64 13 64L 16 64L 16 82L 53.5 82L 143.5 10Z"></path></g></g></g><g id="g-root-4.Vector_sy_zqxc231ejgxz4-stroke" data-item-order="-238256" data-item-id="4.Vector_sy_zqxc231ejgxz4" data-item-class="ScenePart Indexed Fill Stroke ColorStrokeBlack" data-item-index="4" data-renderer-id="0" transform="translate(374, 207)"><g id="4.Vector_sy_zqxc231ejgxz4-stroke" fill="none" stroke-linecap="round" stroke-linejoin="round" stroke-miterlimit="1.5" stroke="#484848" stroke-width="2"><g><path d="M 143.5 10L 106 10L 73 10C 71.343 10 70 11.343 70 13C 70 14.657 71.343 16 73 16L 76 16L 76 34L 43 34C 41.343 34 40 35.343 40 37C 40 38.657 41.343 40 43 40L 46 40L 46 58L 13 58C 11.343 58 10 59.343 10 61C 10 62.657 11.343 64 13 64L 16 64L 16 82L 53.5 82L 143.5 10Z"></path></g></g></g><g id="g-root-5.Vector_sy_qvabt71ejgyrt-stroke" data-item-order="-238254" data-item-id="5.Vector_sy_qvabt71ejgyrt" data-item-class="ScenePart Indexed Fill Stroke ColorStrokeBlack" data-item-index="5" data-renderer-id="0" transform="translate(464, 135)"><g id="5.Vector_sy_qvabt71ejgyrt-stroke" fill="none" stroke-linecap="round" stroke-linejoin="round" stroke-miterlimit="1.5" stroke="#484848" stroke-width="2"><g><path d="M 106 10L 143.5 10L 53.5 82L 16 82L 16 64L 13 64C 11.343 64 10 62.657 10 61C 10 59.343 11.343 58 13 58L 46 58L 46 40L 43 40C 41.343 40 40 38.657 40 37C 40 35.343 41.343 34 43 34L 76 34L 76 16L 73 16C 71.343 16 70 14.657 70 13C 70 11.343 71.343 10 73 10L 106 10Z"></path></g></g></g><g id="g-root-6.Vector_sy_qvabt71ejgyru-stroke" data-item-order="-238252" data-item-id="6.Vector_sy_qvabt71ejgyru" data-item-class="ScenePart Indexed Fill Stroke ColorStrokeBlack" data-item-index="6" data-renderer-id="0" transform="translate(554, 63)"><g id="6.Vector_sy_qvabt71ejgyru-stroke" fill="none" stroke-linecap="round" stroke-linejoin="round" stroke-miterlimit="1.5" stroke="#484848" stroke-width="2"><g><path d="M 106 16L 106 40L 53.5 82L 16 82L 16 64L 13 64C 11.343 64 10 62.657 10 61C 10 59.343 11.343 58 13 58L 46 58L 46 40L 43 40C 41.343 40 40 38.657 40 37C 40 35.343 41.343 34 43 34L 76 34L 76 16L 73 16C 71.343 16 70 14.657 70 13C 70 11.343 71.343 10 73 10L 106 10L 106 16Z"></path></g></g></g><g id="g-root-tx__mg3arv1ejgweb-stroke" data-item-order="0" data-item-id="tx__mg3arv1ejgweb" data-item-class="Label Stroke SceneTarget Indexed ColorStrokeBlack" data-item-index="6" data-renderer-id="0" transform="translate(512, 15)"></g><g id="g-root-give_dcc4ej1ejjoy1-stroke" data-item-order="0" data-item-id="give_dcc4ej1ejjoy1" data-item-class="Icon Stroke SceneTarget Indexed ColorStrokeBlack" data-item-index="6" data-renderer-id="0" transform="translate(572, 3)"><g id="give_dcc4ej1ejjoy1-stroke" fill="none" stroke-linecap="round" stroke-linejoin="round" stroke-miterlimit="1.5" stroke="#484848" stroke-width="2"><g><path d="M 57 54L 55 50.132L 55 41C 55.084 37.444 50.838 34.274 47 31M 50.038 45L 44.936 39.786C 44.317 39.142 43.4 38.878 42.533 39.096C 41.667 39.314 40.983 39.979 40.743 40.84C 40.502 41.7 40.74 42.624 41.368 43.26L 47 49L 47 52C 47.306 53.789 47.988 55.493 49 57M 11 14L 13 17.868L 13 27C 12.916 30.556 17.162 33.726 21 37M 17.962 23L 23.064 28.214C 23.683 28.858 24.6 29.122 25.467 28.904C 26.333 28.686 27.017 28.021 27.257 27.16C 27.498 26.3 27.26 25.376 26.632 24.74L 21 19L 21 16C 20.694 14.211 20.012 12.507 19 11M 21 26.104L 21 49C 21 50.105 21.895 51 23 51L 42 51M 47 41.896L 47 19C 47 17.895 46.105 17 45 17L 25 17"></path></g></g></g><g id="g-root-tx__dkgaiz1ejgx70-stroke" data-item-order="0" data-item-id="tx__dkgaiz1ejgx70" data-item-class="Label Stroke SceneTarget Indexed ColorStrokeBlack" data-item-index="5" data-renderer-id="0" transform="translate(386, 87)"></g><g id="g-root-appr_1q8830r1ejjq4q-stroke" data-item-order="0" data-item-id="appr_1q8830r1ejjq4q" data-item-class="Icon Stroke SceneTarget Indexed ColorStrokeBlack" data-item-index="5" data-renderer-id="0" transform="translate(482, 75)"><g id="appr_1q8830r1ejjq4q-stroke" fill="none" stroke-linecap="round" stroke-linejoin="round" stroke-miterlimit="1.5" stroke="#484848" stroke-width="2"><g><path d="M 57 54L 55 50.132L 55 41C 55.084 37.444 50.838 34.274 47 31M 50.038 45L 44.936 39.786C 44.317 39.142 43.4 38.878 42.533 39.096C 41.667 39.314 40.983 39.979 40.743 40.84C 40.502 41.7 40.74 42.624 41.368 43.26L 47 49L 47 52C 47.306 53.789 47.988 55.493 49 57M 11 14L 13 17.868L 13 27C 12.916 30.556 17.162 33.726 21 37M 17.962 23L 23.064 28.214C 23.683 28.858 24.6 29.122 25.467 28.904C 26.333 28.686 27.017 28.021 27.257 27.16C 27.498 26.3 27.26 25.376 26.632 24.74L 21 19L 21 16C 20.694 14.211 20.012 12.507 19 11M 21 26.104L 21 56C 21 56.552 21.448 57 22 57L 44 57M 32 15L 25 15M 47 41.896L 47 30M 36 41L 25 41M 43 35L 25 35M 34 47L 25 47M 51 19C 51 23.418 47.418 27 43 27C 38.582 27 35 23.418 35 19C 35 14.582 38.582 11 43 11M 51 13L 43.708 20.292C 43.52 20.48 43.266 20.586 43 20.586C 42.734 20.586 42.48 20.48 42.292 20.292L 40 18"></path></g></g></g><g id="g-root-tx__94msej1ejgxz9-stroke" data-item-order="0" data-item-id="tx__94msej1ejgxz9" data-item-class="Label Stroke SceneTarget Indexed ColorStrokeBlack" data-item-index="4" data-renderer-id="0" transform="translate(176, 159)"></g><g id="g-root-chec_1lsekwb1ejjqwz-stroke" data-item-order="0" data-item-id="chec_1lsekwb1ejjqwz" data-item-class="Icon Stroke SceneTarget Indexed ColorStrokeBlack" data-item-index="4" data-renderer-id="0" transform="translate(392, 147)"><g id="chec_1lsekwb1ejjqwz-stroke" fill="none" stroke-linecap="round" stroke-linejoin="round" stroke-miterlimit="1.5" stroke="#484848" stroke-width="2"><g><path d="M 45 24L 32.93 41.464L 23.774 32.304M 14 17.55L 14 32.824C 13.983 42.968 20.203 52.08 29.656 55.76L 31.79 56.588C 33.212 57.138 34.788 57.138 36.21 56.588L 38.344 55.76C 47.797 52.08 54.017 42.968 54 32.824L 54 17.55C 54.01 16.345 53.314 15.245 52.22 14.738C 46.48 12.216 40.269 10.942 34 11C 27.731 10.942 21.52 12.216 15.78 14.738C 14.686 15.245 13.99 16.345 14 17.55Z"></path></g></g></g><g id="g-root-tx__94msej1ejgxza-stroke" data-item-order="0" data-item-id="tx__94msej1ejgxza" data-item-class="Label Stroke SceneTarget Indexed ColorStrokeBlack" data-item-index="3" data-renderer-id="0" transform="translate(206, 231)"></g><g id="g-root-paym_18hkjm31ejjpc4-stroke" data-item-order="0" data-item-id="paym_18hkjm31ejjpc4" data-item-class="Icon Stroke SceneTarget Indexed ColorStrokeBlack" data-item-index="3" data-renderer-id="0" transform="translate(302, 219)"><g id="paym_18hkjm31ejjpc4-stroke" fill="none" stroke-linecap="round" stroke-linejoin="round" stroke-miterlimit="1.5" stroke="#484848" stroke-width="2"><g><path d="M 13 19C 11.895 19 11 19.895 11 21L 11 53C 11 55.209 12.791 57 15 57L 33 57C 35.209 57 37 55.209 37 53L 37 21C 37 19.895 36.105 19 35 19M 11 25L 37 25M 11 33L 37 33M 16 47L 18.98 47M 23 47L 26 47M 16 51L 18.98 51M 23 51L 26 51M 16 43L 18.98 43M 23 43L 26 43M 16 39L 19 39M 23 39L 26 39M 30 39L 32 39M 31 51L 31 43M 17 25L 17 12.62C 17.002 12.27 17.183 11.945 17.48 11.76C 17.777 11.589 18.143 11.589 18.44 11.76L 21 13L 23.44 11.36C 23.781 11.142 24.219 11.142 24.56 11.36L 27 13L 29.56 11.72C 29.857 11.549 30.223 11.549 30.52 11.72C 30.817 11.905 30.998 12.23 31 12.58L 31 25M 43 11L 55 11C 55 11 57 11 57 13L 57 31C 57 31 57 33 55 33L 43 33C 43 33 41 33 41 31L 41 13C 41 13 41 11 43 11M 47 11L 47 33M 53 18L 53 15M 45 45L 49 49L 53 45M 49 49L 49 39"></path></g></g></g><g id="g-root-tx__8zs5n1ejgyrz-stroke" data-item-order="0" data-item-id="tx__8zs5n1ejgyrz" data-item-class="Label Stroke SceneTarget Indexed ColorStrokeBlack" data-item-index="2" data-renderer-id="0" transform="translate(92, 303)"></g><g id="g-root-moni_zlxjd71ejjq4t-stroke" data-item-order="0" data-item-id="moni_zlxjd71ejjq4t" data-item-class="Icon Stroke SceneTarget Indexed ColorStrokeBlack" data-item-index="2" data-renderer-id="0" transform="translate(212, 291)"><g id="moni_zlxjd71ejjq4t-stroke" fill="none" stroke-linecap="round" stroke-linejoin="round" stroke-miterlimit="1.5" stroke="#484848" stroke-width="2"><g><path d="M 26 33L 15 33C 13.343 33 12 31.657 12 30L 12 14C 12 12.343 13.343 11 15 11L 34 11C 35.656 11 38 12.344 38 14L 38 27M 26 33L 26 39M 17 39L 26 39M 52.25 51L 33 51C 31.343 51 30 49.657 30 48L 30 34C 29.945 33.232 30.209 32.475 30.729 31.908C 31.249 31.34 31.98 31.012 32.75 31L 52 31C 53.656 31 56 32.344 56 34L 56 48C 56 49.656 53.906 51 52.25 51ZM 44 51L 44 57M 35 57L 53 57M 22 27L 22 18C 22 16.343 23.343 15 25 15C 26.657 15 28 16.343 28 18L 28 27M 22 21L 28 21M 46 38C 46 39.657 44.657 41 43 41L 40 41L 40 35L 43 35C 44.657 35 46 36.343 46 38ZM 46 44C 46 45.657 44.657 47 43 47L 40 47L 40 41L 43 41C 44.657 41 46 42.343 46 44Z"></path></g></g></g><g id="g-root-tx__4otaa31ejgyrk-stroke" data-item-order="0" data-item-id="tx__4otaa31ejgyrk" data-item-class="Label Stroke SceneTarget Indexed Indexed_1 ColorStrokeBlack" data-item-index="1" data-renderer-id="0" transform="translate(2, 375)"></g><g id="g-root-hamm_v6418r1ejjqx2-stroke" data-item-order="0" data-item-id="hamm_v6418r1ejjqx2" data-item-class="Icon Stroke SceneTarget Indexed Indexed_1 ColorStrokeBlack" data-item-index="1" data-renderer-id="0" transform="translate(122, 363)"><g id="hamm_v6418r1ejjqx2-stroke" fill="none" stroke-linecap="round" stroke-linejoin="round" stroke-miterlimit="1.5" stroke="#484848" stroke-width="2"><g><path d="M 22.994 21.578L 31.867 12.705C 31.867 12.705 34.291 10.281 36.715 12.705L 55.288 31.278C 55.288 31.278 57.712 33.702 55.288 36.126L 46.415 44.999C 46.415 44.999 43.991 47.423 41.567 44.999L 22.994 26.43C 22.994 26.43 20.57 24.002 22.994 21.578M 13.12 48.023C 11.227 49.917 11.227 52.986 13.121 54.879C 15.014 56.773 18.083 56.773 19.977 54.88L 35.714 39.143L 28.857 32.286Z"></path></g></g></g></g></svg>