<?xml version="1.0" encoding="utf-8" standalone="yes"?>
<!DOCTYPE svg PUBLIC "-//W3C//DTD SVG 1.1//EN" "http://www.w3.org/Graphics/SVG/1.1/DTD/svg11.dtd">
<svg width="552" height="379" viewBox="0 0 552 379" style="fill:none;stroke:none;fill-rule:evenodd;clip-rule:evenodd;stroke-linecap:round;stroke-linejoin:round;stroke-miterlimit:1.5;" version="1.1" xmlns="http://www.w3.org/2000/svg" xmlns:xlink="http://www.w3.org/1999/xlink"><style id="fontImports">@import url("https://fonts.googleapis.com/css2?family=Roboto:wght@400;700&amp;display=block");</style><g id="blend" style="mix-blend-mode:multiply"><g id="g-root-0.cr-big_cr_13zvg1l1fn9ogd-fill" data-item-order="-124464" data-item-id="0.cr-big_cr_13zvg1l1fn9ogd" data-item-class="Shape Stroke Fill ScenePart Indexed_0 ColorFillBlack ColorStrokeBlack" data-item-index="0" data-renderer-id="0" transform="translate(206.00006103515625, 119.39987182617188)"><g id="0.cr-big_cr_13zvg1l1fn9ogd-fill" stroke="none" fill="url(#gradient-999999-232777082)"><g><path d="M 10 70C 10 103.137 36.863 130 70 130C 103.137 130 130 103.137 130 70C 130 36.863 103.137 10 70 10C 36.863 10 10 36.863 10 70"></path></g></g></g><g id="g-root-4.cu_sy_zk1xx51fn9p8p-fill" data-item-order="-124462" data-item-id="4.cu_sy_zk1xx51fn9p8p" data-item-class="ScenePart Indexed Fill Stroke ColorStrokeBlack" data-item-index="4" data-renderer-id="0" transform="translate(122, 3)"><g id="4.cu_sy_zk1xx51fn9p8p-fill" stroke="none" fill="url(#gradient-fba659-170788768)"><g><path d="M 94.002 186.403L 10 186.403L 10 186.4C 10 99.317 71.84 26.677 154.002 10L 154.002 126.403C 120.865 126.403 94.002 153.266 94.002 186.403Z"></path></g></g></g><g id="g-root-3.cu_sy_zk1xx51fn9p8o-fill" data-item-order="-124460" data-item-id="3.cu_sy_zk1xx51fn9p8o" data-item-class="ScenePart Indexed Fill Stroke ColorStrokeBlack" data-item-index="3" data-renderer-id="0" transform="translate(265.99798583984375, 179.39999389648438)"><g id="3.cu_sy_zk1xx51fn9p8o-fill" stroke="none" fill="url(#gradient-ffeb38-392015901)"><g><path d="M 70 10L 154.002 10C 154.002 97.083 92.162 169.723 10 186.4L 10 70C 43.137 70 70 43.137 70 10Z"></path></g></g></g><g id="g-root-2.cu_sy_13zvg1l1fn9ogf-fill" data-item-order="-124458" data-item-id="2.cu_sy_13zvg1l1fn9ogf" data-item-class="ScenePart Indexed Fill Stroke ColorStrokeBlack" data-item-index="2" data-renderer-id="0" transform="translate(89.60000610351562, 179.39999389648438)"><g id="2.cu_sy_13zvg1l1fn9ogf-fill" stroke="none" fill="url(#gradient-44d0ff-453494305)"><g><path d="M 186.401 70L 186.401 154L 186.399 154C 99.317 154 26.678 92.161 10 10L 126.401 10C 126.401 43.137 153.264 70 186.401 70Z"></path></g></g></g><g id="g-root-1.cu_sy_13zvg1l1fn9oge-fill" data-item-order="-124456" data-item-id="1.cu_sy_13zvg1l1fn9oge" data-item-class="ScenePart Indexed Indexed_1 Fill Stroke ColorStrokeBlack" data-item-index="1" data-renderer-id="0" transform="translate(265.9990234375, 35.399993896484375)"><defs><linearGradient id="gradient-999999-232777082" x2="0" y2="1"><stop offset="0" stop-color="#cccccc"></stop><stop offset="1" stop-color="#666666"></stop></linearGradient><linearGradient id="gradient-fba659-170788768" x2="0" y2="1"><stop offset="0" stop-color="#fcb778"></stop><stop offset="1" stop-color="#F99539"></stop></linearGradient><linearGradient id="gradient-ffeb38-392015901" x2="0" y2="1"><stop offset="0" stop-color="#fff066"></stop><stop offset="1" stop-color="#FFE60A"></stop></linearGradient><linearGradient id="gradient-44d0ff-453494305" x2="0" y2="1"><stop offset="0" stop-color="#6ddafe"></stop><stop offset="1" stop-color="#1AC6FF"></stop></linearGradient><linearGradient id="gradient-65e5a8-188701211" x2="0" y2="1"><stop offset="0" stop-color="#85eaba"></stop><stop offset="1" stop-color="#44E095"></stop></linearGradient></defs><g id="1.cu_sy_13zvg1l1fn9oge-fill" stroke="none" fill="url(#gradient-65e5a8-188701211)"><g><path d="M 10 94.003L 10 10L 10.001 10C 97.085 10 169.725 71.841 186.402 154.003L 70 154.003C 70 120.866 43.137 94.003 10 94.003Z"></path></g></g></g><g id="g-root-tx__m97wmx1fn9nnv-fill" data-item-order="0" data-item-id="tx__m97wmx1fn9nnv" data-item-class="Label Stroke SceneTarget Indexed ColorStrokeBlack" data-item-index="4" data-renderer-id="0" transform="translate(2, 35.399993896484375)"><g id="tx__m97wmx1fn9nnv-fill" stroke="none" fill="#484848"><g><text style="font: 20px Roboto, sans-serif; white-space: pre;"><tspan x="20" y="33.5" dominant-baseline="ideographic">新しい働き方</tspan></text></g></g></g><g id="g-root-tx__8xre9l1fn9p8u-fill" data-item-order="0" data-item-id="tx__8xre9l1fn9p8u" data-item-class="Label Stroke SceneTarget Indexed Indexed_1 ColorStrokeBlack" data-item-index="1" data-renderer-id="0" transform="translate(398, 35.399993896484375)"><g id="tx__8xre9l1fn9p8u-fill" stroke="none" fill="#484848"><g><text style="font: 20px Roboto, sans-serif; white-space: pre;"><tspan x="12" y="33.5" dominant-baseline="ideographic">最高のツール</tspan></text></g></g></g><g id="g-root-1_1q5q0hl1fnf9ce-fill" data-item-order="0" data-item-id="1_1q5q0hl1fnf9ce" data-item-class="Icon Stroke SceneTarget Indexed InsideFill InsideColorFill ColorStrokeBlack" data-item-index="4" data-renderer-id="0" transform="translate(176, 77.39999389648438)"></g><g id="g-root-rule_18efzzt1fnfbpl-fill" data-item-order="0" data-item-id="rule_18efzzt1fnfbpl" data-item-class="Icon Stroke SceneTarget Indexed Indexed_1 InsideFill InsideColorFill ColorStrokeBlack" data-item-index="1" data-renderer-id="0" transform="translate(320, 89.39999389648438)"></g><g id="g-root-3_9m3211fndxc5-fill" data-item-order="0" data-item-id="3_9m3211fndxc5" data-item-class="Icon Stroke SceneTarget InsideFill InsideColorFill InsideBlackFill ColorStrokeBlack" data-item-index="0" data-renderer-id="0" transform="translate(230, 143.39608764648438)"></g><g id="g-root-cele_1lpwid51fnfa4n-fill" data-item-order="0" data-item-id="cele_1lpwid51fnfa4n" data-item-class="Icon Stroke SceneTarget Indexed InsideFill InsideColorFill ColorStrokeBlack" data-item-index="3" data-renderer-id="0" transform="translate(164, 221.39999389648438)"></g><g id="g-root-codi_1ha308p1fnfaww-fill" data-item-order="0" data-item-id="codi_1ha308p1fnfaww" data-item-class="Icon Stroke SceneTarget Indexed InsideFill InsideColorFill ColorStrokeBlack" data-item-index="2" data-renderer-id="0" transform="translate(308, 233.39999389648438)"></g><g id="g-root-tx__hteeih1fn9og4-fill" data-item-order="0" data-item-id="tx__hteeih1fn9og4" data-item-class="Label Stroke SceneTarget Indexed ColorStrokeBlack" data-item-index="3" data-renderer-id="0" transform="translate(26, 299.3999938964844)"><g id="tx__hteeih1fn9og4-fill" stroke="none" fill="#484848"><g><text style="font: 20px Roboto, sans-serif; white-space: pre;"><tspan x="16" y="33.5" dominant-baseline="ideographic">楽しい仕事</tspan></text></g></g></g><g id="g-root-tx_ai_hteeih1fn9og5-fill" data-item-order="0" data-item-id="tx_ai_hteeih1fn9og5" data-item-class="Label Stroke SceneTarget Indexed ColorStrokeBlack" data-item-index="2" data-renderer-id="0" transform="translate(398, 299.3999938964844)"><g id="tx_ai_hteeih1fn9og5-fill" stroke="none" fill="#484848"><g><text style="font: 20px Roboto, sans-serif; white-space: pre;"><tspan x="12" y="33.5" dominant-baseline="ideographic">AIの活用</tspan></text></g></g></g><g id="g-root-0.cr-big_cr_13zvg1l1fn9ogd-stroke" data-item-order="-124464" data-item-id="0.cr-big_cr_13zvg1l1fn9ogd" data-item-class="Shape Stroke Fill ScenePart Indexed_0 ColorFillBlack ColorStrokeBlack" data-item-index="0" data-renderer-id="0" transform="translate(206.00006103515625, 119.39987182617188)"><g id="0.cr-big_cr_13zvg1l1fn9ogd-stroke" fill="none" stroke-linecap="round" stroke-linejoin="round" stroke-miterlimit="1.5" stroke="#484848" stroke-width="2"><g><path d="M 10 70C 10 103.137 36.863 130 70 130C 103.137 130 130 103.137 130 70C 130 36.863 103.137 10 70 10C 36.863 10 10 36.863 10 70"></path></g></g></g><g id="g-root-4.cu_sy_zk1xx51fn9p8p-stroke" data-item-order="-124462" data-item-id="4.cu_sy_zk1xx51fn9p8p" data-item-class="ScenePart Indexed Fill Stroke ColorStrokeBlack" data-item-index="4" data-renderer-id="0" transform="translate(122, 3)"><g id="4.cu_sy_zk1xx51fn9p8p-stroke" fill="none" stroke-linecap="round" stroke-linejoin="round" stroke-miterlimit="1.5" stroke="#484848" stroke-width="2"><g><path d="M 94.002 186.403L 10 186.403L 10 186.4C 10 99.317 71.84 26.677 154.002 10L 154.002 126.403C 120.865 126.403 94.002 153.266 94.002 186.403Z"></path></g></g></g><g id="g-root-3.cu_sy_zk1xx51fn9p8o-stroke" data-item-order="-124460" data-item-id="3.cu_sy_zk1xx51fn9p8o" data-item-class="ScenePart Indexed Fill Stroke ColorStrokeBlack" data-item-index="3" data-renderer-id="0" transform="translate(265.99798583984375, 179.39999389648438)"><g id="3.cu_sy_zk1xx51fn9p8o-stroke" fill="none" stroke-linecap="round" stroke-linejoin="round" stroke-miterlimit="1.5" stroke="#484848" stroke-width="2"><g><path d="M 70 10L 154.002 10C 154.002 97.083 92.162 169.723 10 186.4L 10 70C 43.137 70 70 43.137 70 10Z"></path></g></g></g><g id="g-root-2.cu_sy_13zvg1l1fn9ogf-stroke" data-item-order="-124458" data-item-id="2.cu_sy_13zvg1l1fn9ogf" data-item-class="ScenePart Indexed Fill Stroke ColorStrokeBlack" data-item-index="2" data-renderer-id="0" transform="translate(89.60000610351562, 179.39999389648438)"><g id="2.cu_sy_13zvg1l1fn9ogf-stroke" fill="none" stroke-linecap="round" stroke-linejoin="round" stroke-miterlimit="1.5" stroke="#484848" stroke-width="2"><g><path d="M 186.402 70L 186.402 154L 186.4 154C 99.317 154 26.678 92.161 10 10L 126.402 10C 126.402 43.137 153.265 70 186.402 70Z"></path></g></g></g><g id="g-root-1.cu_sy_13zvg1l1fn9oge-stroke" data-item-order="-124456" data-item-id="1.cu_sy_13zvg1l1fn9oge" data-item-class="ScenePart Indexed Indexed_1 Fill Stroke ColorStrokeBlack" data-item-index="1" data-renderer-id="0" transform="translate(265.9990234375, 35.399993896484375)"><g id="1.cu_sy_13zvg1l1fn9oge-stroke" fill="none" stroke-linecap="round" stroke-linejoin="round" stroke-miterlimit="1.5" stroke="#484848" stroke-width="2"><g><path d="M 10 94.003L 10 10L 10.001 10C 97.085 10 169.725 71.841 186.401 154.003L 70 154.003C 70 120.866 43.137 94.003 10 94.003Z"></path></g></g></g><g id="g-root-tx__m97wmx1fn9nnv-stroke" data-item-order="0" data-item-id="tx__m97wmx1fn9nnv" data-item-class="Label Stroke SceneTarget Indexed ColorStrokeBlack" data-item-index="4" data-renderer-id="0" transform="translate(2, 35.399993896484375)"></g><g id="g-root-tx__8xre9l1fn9p8u-stroke" data-item-order="0" data-item-id="tx__8xre9l1fn9p8u" data-item-class="Label Stroke SceneTarget Indexed Indexed_1 ColorStrokeBlack" data-item-index="1" data-renderer-id="0" transform="translate(398, 35.399993896484375)"></g><g id="g-root-1_1q5q0hl1fnf9ce-stroke" data-item-order="0" data-item-id="1_1q5q0hl1fnf9ce" data-item-class="Icon Stroke SceneTarget Indexed InsideFill InsideColorFill ColorStrokeBlack" data-item-index="4" data-renderer-id="0" transform="translate(176, 77.39999389648438)"><g id="1_1q5q0hl1fnf9ce-stroke" fill="none" stroke-linecap="round" stroke-linejoin="round" stroke-miterlimit="1.5" stroke="#484848" stroke-width="2"><g><path d="M 15.1 33.488L 39.694 33.488C 39.694 33.488 43.794 33.488 43.794 37.588L 43.794 51.934C 43.794 51.934 43.794 56.034 39.694 56.034L 15.1 56.034C 15.1 56.034 11 56.034 11 51.934L 11 37.588C 11 37.588 11 33.488 15.1 33.488M 11 41.686L 25.238 41.686M 29.556 41.686L 43.794 41.686M 33.546 33.488L 21.248 33.488L 21.988 29.922C 22.261 29.049 23.098 28.479 24.01 28.544L 30.784 28.544C 31.696 28.479 32.533 29.049 32.806 29.922ZM 48.672 37.214C 54.61 34.904 58.017 28.648 56.735 22.406C 55.453 16.165 49.857 11.758 43.489 11.975C 37.121 12.192 31.838 16.97 30.984 23.284M 55.742 19.434L 53.266 19.434C 51.271 19.585 49.685 21.171 49.534 23.166L 49.534 26.644C 49.534 27.492 48.288 28.15 47.636 28.75L 44.954 31.216M 40.964 12.306C 40.964 12.306 43.142 14.022 43.938 14.636C 45.283 15.672 45.546 17.596 44.528 18.954L 42.652 21.454C 42.066 22.235 41.146 22.694 40.17 22.694L 38.354 22.694C 37.529 22.692 36.738 23.019 36.154 23.602L 35.378 24.38M 26.262 39.636L 28.532 39.636C 28.532 39.636 29.556 39.636 29.556 40.66L 29.556 44.76C 29.556 44.76 29.556 45.784 28.532 45.784L 26.262 45.784C 26.262 45.784 25.238 45.784 25.238 44.76L 25.238 40.66C 25.238 40.66 25.238 39.636 26.262 39.636"></path></g></g></g><g id="g-root-rule_18efzzt1fnfbpl-stroke" data-item-order="0" data-item-id="rule_18efzzt1fnfbpl" data-item-class="Icon Stroke SceneTarget Indexed Indexed_1 InsideFill InsideColorFill ColorStrokeBlack" data-item-index="1" data-renderer-id="0" transform="translate(320, 89.39999389648438)"><g id="rule_18efzzt1fnfbpl-stroke" fill="none" stroke-linecap="round" stroke-linejoin="round" stroke-miterlimit="1.5" stroke="#484848" stroke-width="2"><g><path d="M 11.718 42.558L 42.582 11.697L 56.303 25.418L 25.439 56.279ZM 35.714 18.571L 40.857 23.714M 27.143 27.143L 32.286 32.286M 18.571 35.714L 23.714 40.857"></path></g></g></g><g id="g-root-3_9m3211fndxc5-stroke" data-item-order="0" data-item-id="3_9m3211fndxc5" data-item-class="Icon Stroke SceneTarget InsideFill InsideColorFill InsideBlackFill ColorStrokeBlack" data-item-index="0" data-renderer-id="0" transform="translate(230, 143.39608764648438)"><g id="3_9m3211fndxc5-stroke" fill="none" stroke-linecap="round" stroke-linejoin="round" stroke-miterlimit="1.5" stroke="#484848" stroke-width="2"><g><path d="M 34.75 61.75L 34.75 52.75C 34.75 51.093 33.407 49.75 31.75 49.75L 15.25 49.75C 13.593 49.75 12.25 51.093 12.25 52.75L 12.25 79.75L 79.75 79.75L 79.75 61.75ZM 30.25 49.75L 16.75 49.75L 19 12.25L 28 12.25L 30.25 49.75ZM 39.25 70.75L 43.75 70.75M 52.75 70.75L 57.25 70.75M 66.25 70.75L 70.75 70.75M 18.358 22.75L 28.642 22.75M 55.495 48.334C 55.495 50.773 57.472 52.751 59.911 52.751C 62.35 52.751 64.327 50.773 64.327 48.334C 64.327 45.895 62.35 43.917 59.911 43.917C 57.472 43.917 55.495 45.895 55.495 48.334M 75.442 52.468L 73.468 50.338C 72.421 49.207 72.421 47.461 73.468 46.33L 76.501 43.06C 77.68 41.796 77.896 39.911 77.035 38.412C 76.174 36.913 74.437 36.151 72.751 36.532L 68.416 37.534C 66.917 37.881 65.406 37.004 64.963 35.53L 63.661 31.255C 63.161 29.602 61.638 28.472 59.911 28.472C 58.184 28.472 56.661 29.602 56.161 31.255L 54.859 35.53C 54.414 37.003 52.903 37.879 51.403 37.534L 47.071 36.532C 45.385 36.149 43.645 36.911 42.783 38.41C 41.922 39.909 42.138 41.795 43.318 43.06L 46.351 46.33C 47.398 47.461 47.398 49.207 46.351 50.338L 44.38 52.468"></path></g></g></g><g id="g-root-cele_1lpwid51fnfa4n-stroke" data-item-order="0" data-item-id="cele_1lpwid51fnfa4n" data-item-class="Icon Stroke SceneTarget Indexed InsideFill InsideColorFill ColorStrokeBlack" data-item-index="3" data-renderer-id="0" transform="translate(164, 221.39999389648438)"><g id="cele_1lpwid51fnfa4n-stroke" fill="none" stroke-linecap="round" stroke-linejoin="round" stroke-miterlimit="1.5" stroke="#484848" stroke-width="2"><g><path d="M 43.52 43.26C 42.52 36.06 34.34 36.7 33.24 42.8C 32.44 47.22 38.12 54.1 40.32 56.58C 40.71 57.013 41.343 57.128 41.86 56.86C 44.78 55.3 52.5 50.86 53.3 46.42C 54.4 40.32 46.94 36.86 43.52 43.26ZM 38.62 38C 39.114 36.418 39.176 34.734 38.8 33.12C 36.6 25.62 26 26.16 26.34 36C 21.46 27.5 12.14 32.8 14.34 40.34C 15.98 45.88 26.94 50.52 30.16 51.76C 30.691 51.98 31.304 51.806 31.64 51.34C 32.2 50.56 33.14 49.34 34.16 47.62M 11 11C 26.007 14.866 41.551 16.217 57 15M 14 11.7L 16 19.02C 16.106 19.391 16.415 19.667 16.795 19.731C 17.175 19.796 17.559 19.635 17.78 19.32L 21.98 13.32M 24 13.66L 26.68 20.24C 26.834 20.578 27.159 20.806 27.529 20.835C 27.899 20.864 28.256 20.69 28.46 20.38L 32 14.74M 34.82 14.98L 37.66 21.24C 37.825 21.576 38.166 21.789 38.54 21.789C 38.914 21.789 39.255 21.576 39.42 21.24L 42.86 15.24M 45.44 15.44L 49.08 22.24C 49.247 22.585 49.597 22.804 49.98 22.804C 50.363 22.804 50.713 22.585 50.88 22.24L 54.14 15.2M 11 27L 15 27M 13 25L 13 29M 49 31L 53 31M 51 29L 51 33M 53 55L 57 55M 55 53L 55 57M 16 54L 20 54M 18 52L 18 56"></path></g></g></g><g id="g-root-codi_1ha308p1fnfaww-stroke" data-item-order="0" data-item-id="codi_1ha308p1fnfaww" data-item-class="Icon Stroke SceneTarget Indexed InsideFill InsideColorFill ColorStrokeBlack" data-item-index="2" data-renderer-id="0" transform="translate(308, 233.39999389648438)"><g id="codi_1ha308p1fnfaww-stroke" fill="none" stroke-linecap="round" stroke-linejoin="round" stroke-miterlimit="1.5" stroke="#484848" stroke-width="2"><g><path d="M 41.026 23.568L 42.068 23.568C 42.643 23.568 43.11 24.035 43.11 24.61L 43.11 31.904M 41.026 31.904L 45.194 31.904M 52.158 10.978L 53.2 10.978C 53.775 10.978 54.242 11.445 54.242 12.02L 54.242 19.314M 52.158 19.314L 56.326 19.314M 52.158 36.156L 53.2 36.156C 53.775 36.156 54.242 36.623 54.242 37.198L 54.242 44.492M 52.158 44.492L 56.326 44.492M 56.848 29.298C 56.848 30.737 55.682 31.903 54.243 31.903C 52.804 31.903 51.638 30.737 51.638 29.298L 51.638 26.172C 51.638 24.733 52.804 23.567 54.243 23.567C 55.682 23.567 56.848 24.733 56.848 26.172ZM 45.714 41.888C 45.714 43.324 44.55 44.488 43.114 44.488C 41.678 44.488 40.514 43.324 40.514 41.888L 40.514 38.762C 40.514 37.326 41.678 36.162 43.114 36.162C 44.55 36.162 45.714 37.326 45.714 38.762ZM 52.158 48.642L 53.2 48.642C 53.775 48.642 54.242 49.109 54.242 49.684L 54.242 56.978M 52.158 56.978L 56.326 56.978M 45.714 54.374C 45.714 55.81 44.55 56.974 43.114 56.974C 41.678 56.974 40.514 55.81 40.514 54.374L 40.514 51.248C 40.514 49.812 41.678 48.648 43.114 48.648C 44.55 48.648 45.714 49.812 45.714 51.248ZM 45.714 16.902C 45.714 18.338 44.55 19.502 43.114 19.502C 41.678 19.502 40.514 18.338 40.514 16.902L 40.514 13.774C 40.514 12.338 41.678 11.174 43.114 11.174C 44.55 11.174 45.714 12.338 45.714 13.774ZM 29.106 44.522C 29.106 40.932 26.196 38.022 22.606 38.022C 22.502 38.022 22.406 38.048 22.3 38.052M 28.43 18.8C 30.366 18.147 31.499 16.14 31.057 14.145C 30.616 12.15 28.742 10.809 26.711 11.034C 24.68 11.259 23.146 12.979 23.152 15.022C 23.158 15.383 23.212 15.742 23.314 16.088C 23.092 16.068 22.878 16.022 22.652 16.022C 19.795 16.008 17.181 17.626 15.919 20.189C 14.657 22.752 14.969 25.81 16.722 28.066C 13.591 28.281 11.161 30.883 11.161 34.022C 11.161 37.161 13.591 39.763 16.722 39.978C 14.969 42.234 14.657 45.292 15.919 47.855C 17.181 50.418 19.795 52.036 22.652 52.022C 22.878 52.022 23.092 51.974 23.314 51.954C 22.719 54.056 23.92 56.247 26.013 56.875C 28.106 57.503 30.316 56.335 30.976 54.252C 31.636 52.17 30.502 49.942 28.43 49.25M 22.3 30C 22.404 30 22.5 30.03 22.606 30.03C 26.196 30.03 29.106 27.12 29.106 23.53M 31.148 14.828C 32.06 14.301 33.095 14.025 34.148 14.028M 30.97 54.216C 31.947 54.744 33.041 55.019 34.152 55.016M 34.152 24.022L 34.152 45.022"></path></g></g></g><g id="g-root-tx__hteeih1fn9og4-stroke" data-item-order="0" data-item-id="tx__hteeih1fn9og4" data-item-class="Label Stroke SceneTarget Indexed ColorStrokeBlack" data-item-index="3" data-renderer-id="0" transform="translate(26, 299.3999938964844)"></g><g id="g-root-tx_ai_hteeih1fn9og5-stroke" data-item-order="0" data-item-id="tx_ai_hteeih1fn9og5" data-item-class="Label Stroke SceneTarget Indexed ColorStrokeBlack" data-item-index="2" data-renderer-id="0" transform="translate(398, 299.3999938964844)"></g></g></svg>