<svg version="1.2" xmlns="http://www.w3.org/2000/svg" viewBox="0 0 1523 1033" width="1523" height="1033">
	<title>logo (6)-svg</title>
	<style>
		.s0 { fill: #82be28 } 
		.s1 { fill: #2d8c3c } 
	</style>
	<path id="Layer" class="s0" d="m820.5 830.9c4.1 66.5-27.1 95.6-68.7 108.1c-39.6 10.4-77.1 25-112.5 41.6c-64.5 33.3-135.3 49.9-208.1 52c-241.5 4.2-431-218.3-431-505.3c0-287 189.5-521.9 426.8-526.1c156.1-6.2 239.4 52 310.2 93.6c22.9 12.5 45.8 22.8 70.8 33.2c49.9 20.8 60.3 54.1 49.9 106.1c-10.4 52-56.2 128.9-108.2 162.2c-39.6 24.9-85.4 27-114.5 0c-25-25-50-45.8-79.1-62.4c-33.3-20.8-72.9-29.1-112.5-24.9c-74.9 6.2-166.5 85.2-166.5 212.1c0 126.8 87.4 189.2 160.3 199.6c54.1 8.3 112.4-6.3 179-62.4c35.4-29.1 75-39.5 112.5-10.4c41.6 31.2 85.3 122.7 91.6 183z" />
	<path id="Layer" fill-rule="evenodd" class="s1" d="m1495 993.1c-18.7 16.6-41.7 24.9-66.6 22.9c-43.8 2-110.4 4.1-174.9 2c-54.1-2-91.6-27-106.2-62.3c-8.3-22.9-18.7-43.7-31.2-64.5c-14.6-18.7-37.5-29.1-62.5-27c-25-2.1-47.9 8.3-62.4 27c-12.5 20.8-22.9 41.6-29.2 64.5c-14.5 37.4-52 60.3-106.1 62.3c-45.8 2.1-91.6 0-137.4-2c-41.7-4.2-70.8-14.6-85.4-39.5l6.2-2.1c35.4-16.7 72.9-31.2 112.5-41.6c41.6-14.6 72.8-41.6 68.7-108.1c-4.2-58.3-52.1-151.8-89.6-181c-37.4-29.1-77-18.7-112.4 10.4c-66.6 56.2-124.9 70.7-179 62.4c-72.9-10.4-160.3-74.8-160.3-199.6c0-124.8 91.6-205.9 166.5-212.1c39.6-4.2 79.1 4.2 112.4 24.9c29.2 16.7 56.3 37.5 79.2 62.4c29.1 27.1 74.9 25 114.5 0c49.9-31.2 95.7-108.1 108.2-160.1c10.4-45.7 2.1-79-37.5-99.8v-4.2c12.5-58.2 41.7-95.6 77.1-112.2c27-10.4 54.1-14.6 83.2-12.5h143.7c29.1 0 56.2 4.1 83.3 12.5c35.4 14.5 64.5 51.9 77 112.2c10.4 52 41.6 208 66.6 320.3c20.8 103.9 50 205.8 89.5 305.7c10.4 29.1 25 56.1 39.6 81q25 37.5 37.5 81.1c8.3 29.2-2.1 60.4-25 77zm-362.3-499.1c-27-91.5-56.2-103.9-79.1-103.9c-22.9 0-52 12.4-79.1 103.9c-25 81.1-6.2 166.4 79.1 166.4c85.4 0 104.1-85.3 79.1-166.4z" />
</svg>