<?xml version="1.0" encoding="utf-8" standalone="yes"?>
<!DOCTYPE svg PUBLIC "-//W3C//DTD SVG 1.1//EN" "http://www.w3.org/Graphics/SVG/1.1/DTD/svg11.dtd">
<svg width="997" height="476" viewBox="0 0 997 476" style="fill:none;stroke:none;fill-rule:evenodd;clip-rule:evenodd;stroke-linecap:round;stroke-linejoin:round;stroke-miterlimit:1.5;" version="1.1" xmlns="http://www.w3.org/2000/svg" xmlns:xlink="http://www.w3.org/1999/xlink"><style id="fontImports">@import url("https://fonts.googleapis.com/css2?family=Roboto:wght@400;700&amp;display=block");</style><g id="blend" style="mix-blend-mode:multiply"><g id="g-root-ro_qva2h8pkr9jj-fill" data-item-order="-29232" data-item-id="ro_qva2h8pkr9jj" data-item-class="Shape Stroke Fill" data-item-index="none" data-renderer-id="0" transform="translate(386, 66)"><g id="ro_qva2h8pkr9jj-fill" stroke="none" fill="#f0f0f0"><g><path d="M 34 10L 154 10C 154 10 178 10 178 34L 178 160C 178 160 178 184 154 184L 34 184C 34 184 10 184 10 160L 10 34C 10 34 10 10 34 10"></path></g></g></g><g id="g-root-ro_1ltn9qkpkspop-fill" data-item-order="-20088" data-item-id="ro_1ltn9qkpkspop" data-item-class="Shape Stroke Fill" data-item-index="none" data-renderer-id="0" transform="translate(602, 153)"><g id="ro_1ltn9qkpkspop-fill" stroke="none" fill="#e6f9ff"><g><path d="M 22 10L 370 10C 370 10 382 10 382 22L 382 52C 382 52 382 64 370 64L 22 64C 22 64 10 64 10 52L 10 22C 10 22 10 10 22 10"></path></g></g></g><g id="g-root-ro_1q6chl8pk7ll9-fill" data-item-order="-12960" data-item-id="ro_1q6chl8pk7ll9" data-item-class="Shape Stroke Fill" data-item-index="none" data-renderer-id="0" transform="translate(98, 15)"><g id="ro_1q6chl8pk7ll9-fill" stroke="none" fill="#e6efff"><g><path d="M 22 10L 238 10C 238 10 250 10 250 22L 250 52C 250 52 250 64 238 64L 22 64C 22 64 10 64 10 52L 10 22C 10 22 10 10 22 10"></path></g></g></g><g id="g-root-ro_8xrb4cpksohv-fill" data-item-order="-12312" data-item-id="ro_8xrb4cpksohv" data-item-class="Shape Stroke Fill" data-item-index="none" data-renderer-id="0" transform="translate(602, 3)"><g id="ro_8xrb4cpksohv-fill" stroke="none" fill="#e9fbf3"><g><path d="M 22 10L 226 10C 226 10 238 10 238 22L 238 52C 238 52 238 64 226 64L 22 64C 22 64 10 64 10 52L 10 22C 10 22 10 10 22 10"></path></g></g></g><g id="g-root-ro_1qcl5akpksq31-fill" data-item-order="-12312" data-item-id="ro_1qcl5akpksq31" data-item-class="Shape Stroke Fill" data-item-index="none" data-renderer-id="0" transform="translate(356, 327.00006103515625)"><g id="ro_1qcl5akpksq31-fill" stroke="none" fill="#f7e6fe"><g><path d="M 22 10L 226 10C 226 10 238 10 238 22L 238 52C 238 52 238 64 226 64L 22 64C 22 64 10 64 10 52L 10 22C 10 22 10 10 22 10"></path></g></g></g><g id="g-root-ro_1q7lfrgpk7nrf-fill" data-item-order="-10368" data-item-id="ro_1q7lfrgpk7nrf" data-item-class="Shape Stroke Fill" data-item-index="none" data-renderer-id="0" transform="translate(146, 165)"><g id="ro_1q7lfrgpk7nrf-fill" stroke="none" fill="#f5fbe9"><g><path d="M 22 10L 190 10C 190 10 202 10 202 22L 202 52C 202 52 202 64 190 64L 22 64C 22 64 10 64 10 52L 10 22C 10 22 10 10 22 10"></path></g></g></g><g id="g-root-tx__1qcl5akpksq32-fill" data-item-order="0" data-item-id="tx__1qcl5akpksq32" data-item-class="Label Stroke" data-item-index="none" data-renderer-id="0" transform="translate(86, 81)"><g id="tx__1qcl5akpksq32-fill" stroke="none" fill="#484848"><g><text style="font: 20px Roboto, sans-serif; white-space: pre;"><tspan x="12" y="33.5" dominant-baseline="ideographic">自己報告データを活用</tspan></text></g></g></g><g id="g-root-tx__14643rgpksq2v-fill" data-item-order="0" data-item-id="tx__14643rgpksq2v" data-item-class="Label Stroke" data-item-index="none" data-renderer-id="0" transform="translate(404, 429.00006103515625)"><g id="tx__14643rgpksq2v-fill" stroke="none" fill="#484848"><g><text style="font: 20px Roboto, sans-serif; white-space: pre;"><tspan x="16" y="33.5" dominant-baseline="ideographic">改善案への投票機会の提供</tspan></text></g></g></g><g id="g-root-tx__8yrwpk7o5f-fill" data-item-order="0" data-item-id="tx__8yrwpk7o5f" data-item-class="Label Stroke" data-item-index="none" data-renderer-id="0" transform="translate(110, 30)"><g id="tx__8yrwpk7o5f-fill" stroke="none" fill="#4682e3"><g><text style="font: 20px Roboto, sans-serif; white-space: pre;"><tspan x="12" y="33.5" dominant-baseline="ideographic">ベースラインの確立</tspan></text></g></g></g><g id="g-root-chat_743kcpksphg-fill" data-item-order="0" data-item-id="chat_743kcpksphg" data-item-class="Icon Stroke" data-item-index="none" data-renderer-id="0" transform="translate(368, 339.00006103515625)"></g><g id="g-root-tx__1lwrn64pksqvc-fill" data-item-order="0" data-item-id="tx__1lwrn64pksqvc" data-item-class="Label Stroke" data-item-index="none" data-renderer-id="0" transform="translate(650, 69)"><g id="tx__1lwrn64pksqvc-fill" stroke="none" fill="#484848"><g><text style="font: 20px Roboto, sans-serif; white-space: pre;"><tspan x="14" y="33.5" dominant-baseline="ideographic">共通の問題点や改善領域の特定</tspan></text></g></g></g><g id="g-root-4_zqaln0pkrbwm-fill" data-item-order="0" data-item-id="4_zqaln0pkrbwm" data-item-class="Icon Stroke" data-item-index="none" data-renderer-id="0" transform="translate(446, 90)"></g><g id="g-root-tx__1lwrn64pksqvb-fill" data-item-order="0" data-item-id="tx__1lwrn64pksqvb" data-item-class="Label Stroke" data-item-index="none" data-renderer-id="0" transform="translate(2, 117)"><g id="tx__1lwrn64pksqvb-fill" stroke="none" fill="#484848"><g><text style="font: 20px Roboto, sans-serif; white-space: pre;"><tspan x="15.1" y="33.5" dominant-baseline="ideographic">システムデータの段階的な統合</tspan></text></g></g></g><g id="g-root-tx__1lwrn64pksqvd-fill" data-item-order="0" data-item-id="tx__1lwrn64pksqvd" data-item-class="Label Stroke" data-item-index="none" data-renderer-id="0" transform="translate(650, 105)"><g id="tx__1lwrn64pksqvd-fill" stroke="none" fill="#484848"><g><text style="font: 20px Roboto, sans-serif; white-space: pre;"><tspan x="14" y="33.5" dominant-baseline="ideographic">影響の大きい変更に焦点当てる</tspan></text></g></g></g><g id="g-root-tx_devex_14643rgpkrb4d-fill" data-item-order="0" data-item-id="tx_devex_14643rgpkrb4d" data-item-class="Label Stroke" data-item-index="none" data-renderer-id="0" transform="translate(410, 144)"><g id="tx_devex_14643rgpkrb4d-fill" stroke="none" fill="#484848"><g><text style="font: 20px Roboto, sans-serif; white-space: pre;"><tspan x="12.72" y="33.5" dominant-baseline="ideographic">DevEx導入の</tspan><tspan x="20.9" y="57.5" dominant-baseline="ideographic">ベストプラ</tspan><tspan x="30.9" y="81.5" dominant-baseline="ideographic">クティス</tspan></text></g></g></g><g id="g-root-tx__m8lcekpksq2p-fill" data-item-order="0" data-item-id="tx__m8lcekpksq2p" data-item-class="Label Stroke" data-item-index="none" data-renderer-id="0" transform="translate(650, 18)"><g id="tx__m8lcekpksq2p-fill" stroke="none" fill="#3bc482"><g><text style="font: 20px Roboto, sans-serif; white-space: pre;"><tspan x="14" y="33.5" dominant-baseline="ideographic">小規模から始める</tspan></text></g></g></g><g id="g-root-2_1q6chl8pk7ll8-fill" data-item-order="0" data-item-id="2_1q6chl8pk7ll8" data-item-class="Icon Stroke" data-item-index="none" data-renderer-id="0" transform="translate(296, 27)"></g><g id="g-root-brow_1upa9zgpksow0-fill" data-item-order="0" data-item-id="brow_1upa9zgpksow0" data-item-class="Icon Stroke" data-item-index="none" data-renderer-id="0" transform="translate(614, 165)"></g><g id="g-root-tx__4hxw5opk7mdl-fill" data-item-order="0" data-item-id="tx__4hxw5opk7mdl" data-item-class="Label Stroke" data-item-index="none" data-renderer-id="0" transform="translate(158, 180)"><g id="tx__4hxw5opk7mdl-fill" stroke="none" fill="#93c131"><g><text style="font: 20px Roboto, sans-serif; white-space: pre;"><tspan x="16" y="33.5" dominant-baseline="ideographic">継続的な改善</tspan></text></g></g></g><g id="g-root-incr_24e18pk7n5u-fill" data-item-order="0" data-item-id="incr_24e18pk7n5u" data-item-class="Icon Stroke" data-item-index="none" data-renderer-id="0" transform="translate(296, 177)"></g><g id="g-root-tx__1q9grv0pksowf-fill" data-item-order="0" data-item-id="tx__1q9grv0pksowf" data-item-class="Label Stroke" data-item-index="none" data-renderer-id="0" transform="translate(650, 168)"><g id="tx__1q9grv0pksowf-fill" stroke="none" fill="#17b0e3"><g><text style="font: 20px Roboto, sans-serif; white-space: pre;"><tspan x="16.7" y="33.5" dominant-baseline="ideographic">透明性のあるコミュニケーション</tspan></text></g></g></g><g id="g-root-tx__4mxlospksop7-fill" data-item-order="0" data-item-id="tx__4mxlospksop7" data-item-class="Label Stroke" data-item-index="none" data-renderer-id="0" transform="translate(404, 342.00006103515625)"><g id="tx__4mxlospksop7-fill" stroke="none" fill="#b65edf"><g><text style="font: 20px Roboto, sans-serif; white-space: pre;"><tspan x="14" y="33.5" dominant-baseline="ideographic">開発者の参加促進</tspan></text></g></g></g><g id="g-root-1_dcyc5opksqve-fill" data-item-order="0" data-item-id="1_dcyc5opksqve" data-item-class="Icon Stroke" data-item-index="none" data-renderer-id="0" transform="translate(614, 15)"></g><g id="g-root-tx__18lxlvwpkspak-fill" data-item-order="0" data-item-id="tx__18lxlvwpkspak" data-item-class="Label Stroke" data-item-index="none" data-renderer-id="0" transform="translate(2, 231)"><g id="tx__18lxlvwpkspak-fill" stroke="none" fill="#484848"><g><text style="font: 20px Roboto, sans-serif; white-space: pre;"><tspan x="14" y="33.5" dominant-baseline="ideographic">定期的なデータ収集と目標設定</tspan></text></g></g></g><g id="g-root-tx__1hhkm4spksohv-fill" data-item-order="0" data-item-id="tx__1hhkm4spksohv" data-item-class="Label Stroke" data-item-index="none" data-renderer-id="0" transform="translate(650, 279.00006103515625)"><g id="tx__1hhkm4spksohv-fill" stroke="none" fill="#484848"><g><text style="font: 20px Roboto, sans-serif; white-space: pre;"><tspan x="13" y="33.5" dominant-baseline="ideographic">全組織メンバーへの情報共有</tspan></text></g></g></g><g id="g-root-tx__18lxlvwpkspam-fill" data-item-order="0" data-item-id="tx__18lxlvwpkspam" data-item-class="Label Stroke" data-item-index="none" data-renderer-id="0" transform="translate(404, 393.00006103515625)"><g id="tx__18lxlvwpkspam-fill" stroke="none" fill="#484848"><g><text style="font: 20px Roboto, sans-serif; white-space: pre;"><tspan x="16" y="33.5" dominant-baseline="ideographic">匿名の調査結果公開</tspan></text></g></g></g><g id="g-root-tx__1hhkm4spksohu-fill" data-item-order="0" data-item-id="tx__1hhkm4spksohu" data-item-class="Label Stroke" data-item-index="none" data-renderer-id="0" transform="translate(650, 219)"><g id="tx__1hhkm4spksohu-fill" stroke="none" fill="#484848"><g><text style="font: 20px Roboto, sans-serif; white-space: pre;"><tspan x="16" y="33.5" dominant-baseline="ideographic">メトリクスの収集方法と使用目的</tspan><tspan x="126" y="57.5" dominant-baseline="ideographic">の明確化</tspan></text></g></g></g><g id="g-root-tx__18lxlvwpkspal-fill" data-item-order="0" data-item-id="tx__18lxlvwpkspal" data-item-class="Label Stroke" data-item-index="none" data-renderer-id="0" transform="translate(2, 267.00006103515625)"><g id="tx__18lxlvwpkspal-fill" stroke="none" fill="#484848"><g><text style="font: 20px Roboto, sans-serif; white-space: pre;"><tspan x="14" y="33.5" dominant-baseline="ideographic">大規模な目標に対する進捗確認</tspan></text></g></g></g><g id="g-root-cu_1lseeq4pk7ldz-fill" data-item-order="2" data-item-id="cu_1lseeq4pk7ldz" data-item-class="Curve Stroke ColorFillGray ColorStrokeGray" data-item-index="none" data-renderer-id="0" transform="translate(554, 30)"></g><g id="g-root-cu_1q7lfrgpk7nrg-fill" data-item-order="2" data-item-id="cu_1q7lfrgpk7nrg" data-item-class="Curve Stroke ColorFillGray ColorStrokeGray" data-item-index="none" data-renderer-id="0" transform="translate(338, 42)"></g><g id="g-root-cu_1hckwlopk7m6j-fill" data-item-order="2" data-item-id="cu_1hckwlopk7m6j" data-item-class="Curve Stroke ColorFillGray ColorStrokeGray" data-item-index="none" data-renderer-id="0" transform="translate(296, 69)"></g><g id="g-root-cu_1cwreh8pk7myu-fill" data-item-order="2" data-item-id="cu_1cwreh8pk7myu" data-item-class="Curve Stroke ColorFillGray ColorStrokeGray" data-item-index="none" data-renderer-id="0" transform="translate(296, 69)"></g><g id="g-root-cu_18gxwcspk7nr4-fill" data-item-order="2" data-item-id="cu_18gxwcspk7nr4" data-item-class="Curve Stroke ColorFillGray ColorStrokeGray" data-item-index="none" data-renderer-id="0" transform="translate(626, 57)"></g><g id="g-root-cu_18gxwcspk7nr7-fill" data-item-order="2" data-item-id="cu_18gxwcspk7nr7" data-item-class="Curve Stroke ColorFillGray ColorStrokeGray" data-item-index="none" data-renderer-id="0" transform="translate(626, 57)"></g><g id="g-root-cu_1hckwlopk7m6d-fill" data-item-order="2" data-item-id="cu_1hckwlopk7m6d" data-item-class="Curve Stroke ColorFillGray ColorStrokeGray" data-item-index="none" data-renderer-id="0" transform="translate(338, 182)"></g><g id="g-root-cu_1lseeq4pk7le2-fill" data-item-order="2" data-item-id="cu_1lseeq4pk7le2" data-item-class="Curve Stroke ColorFillGray ColorStrokeGray" data-item-index="none" data-renderer-id="0" transform="translate(554, 180)"></g><g id="g-root-cu_141qvbgpk7ldu-fill" data-item-order="2" data-item-id="cu_141qvbgpk7ldu" data-item-class="Curve Stroke ColorFillGray ColorStrokeGray" data-item-index="none" data-renderer-id="0" transform="translate(296, 219)"></g><g id="g-root-cu_141qvbgpk7ldx-fill" data-item-order="2" data-item-id="cu_141qvbgpk7ldx" data-item-class="Curve Stroke ColorFillGray ColorStrokeGray" data-item-index="none" data-renderer-id="0" transform="translate(296, 219)"></g><g id="g-root-cu_18gxwcspk7nr9-fill" data-item-order="2" data-item-id="cu_18gxwcspk7nr9" data-item-class="Curve Stroke ColorFillGray ColorStrokeGray" data-item-index="none" data-renderer-id="0" transform="translate(626, 207)"></g><g id="g-root-cu_141qvbgpk7lds-fill" data-item-order="2" data-item-id="cu_141qvbgpk7lds" data-item-class="Curve Stroke ColorFillGray ColorStrokeGray" data-item-index="none" data-renderer-id="0" transform="translate(626, 207)"></g><g id="g-root-cu_1hckwlopk7m6g-fill" data-item-order="2" data-item-id="cu_1hckwlopk7m6g" data-item-class="Curve Stroke ColorFillGray ColorStrokeGray" data-item-index="none" data-renderer-id="0" transform="translate(470, 240)"></g><g id="g-root-cu_v63v2kpk7m6n-fill" data-item-order="2" data-item-id="cu_v63v2kpk7m6n" data-item-class="Curve Stroke ColorFillGray ColorStrokeGray" data-item-index="none" data-renderer-id="0" transform="translate(380, 381.00006103515625)"></g><g id="g-root-cu_zlxd70pk7m6a-fill" data-item-order="2" data-item-id="cu_zlxd70pk7m6a" data-item-class="Curve Stroke ColorFillGray ColorStrokeGray" data-item-index="none" data-renderer-id="0" transform="translate(380, 381.00006103515625)"></g><g id="g-root-ro_qva2h8pkr9jj-stroke" data-item-order="-29232" data-item-id="ro_qva2h8pkr9jj" data-item-class="Shape Stroke Fill" data-item-index="none" data-renderer-id="0" transform="translate(386, 66)"><g id="ro_qva2h8pkr9jj-stroke" fill="none" stroke-linecap="round" stroke-linejoin="round" stroke-miterlimit="4" stroke="#484848" stroke-width="2"><g><path d="M 34 10L 154 10C 154 10 178 10 178 34L 178 160C 178 160 178 184 154 184L 34 184C 34 184 10 184 10 160L 10 34C 10 34 10 10 34 10"></path></g></g></g><g id="g-root-ro_1ltn9qkpkspop-stroke" data-item-order="-20088" data-item-id="ro_1ltn9qkpkspop" data-item-class="Shape Stroke Fill" data-item-index="none" data-renderer-id="0" transform="translate(602, 153)"><g id="ro_1ltn9qkpkspop-stroke" fill="none" stroke-linecap="round" stroke-linejoin="round" stroke-miterlimit="4" stroke="#17b0e3" stroke-width="2"><g><path d="M 22 10L 370 10C 370 10 382 10 382 22L 382 52C 382 52 382 64 370 64L 22 64C 22 64 10 64 10 52L 10 22C 10 22 10 10 22 10"></path></g></g></g><g id="g-root-ro_1q6chl8pk7ll9-stroke" data-item-order="-12960" data-item-id="ro_1q6chl8pk7ll9" data-item-class="Shape Stroke Fill" data-item-index="none" data-renderer-id="0" transform="translate(98, 15)"><g id="ro_1q6chl8pk7ll9-stroke" fill="none" stroke-linecap="round" stroke-linejoin="round" stroke-miterlimit="4" stroke="#4682e3" stroke-width="2"><g><path d="M 22 10L 238 10C 238 10 250 10 250 22L 250 52C 250 52 250 64 238 64L 22 64C 22 64 10 64 10 52L 10 22C 10 22 10 10 22 10"></path></g></g></g><g id="g-root-ro_8xrb4cpksohv-stroke" data-item-order="-12312" data-item-id="ro_8xrb4cpksohv" data-item-class="Shape Stroke Fill" data-item-index="none" data-renderer-id="0" transform="translate(602, 3)"><g id="ro_8xrb4cpksohv-stroke" fill="none" stroke-linecap="round" stroke-linejoin="round" stroke-miterlimit="4" stroke="#3bc482" stroke-width="2"><g><path d="M 22 10L 226 10C 226 10 238 10 238 22L 238 52C 238 52 238 64 226 64L 22 64C 22 64 10 64 10 52L 10 22C 10 22 10 10 22 10"></path></g></g></g><g id="g-root-ro_1qcl5akpksq31-stroke" data-item-order="-12312" data-item-id="ro_1qcl5akpksq31" data-item-class="Shape Stroke Fill" data-item-index="none" data-renderer-id="0" transform="translate(356, 327.00006103515625)"><g id="ro_1qcl5akpksq31-stroke" fill="none" stroke-linecap="round" stroke-linejoin="round" stroke-miterlimit="4" stroke="#b65edf" stroke-width="2"><g><path d="M 22 10L 226 10C 226 10 238 10 238 22L 238 52C 238 52 238 64 226 64L 22 64C 22 64 10 64 10 52L 10 22C 10 22 10 10 22 10"></path></g></g></g><g id="g-root-ro_1q7lfrgpk7nrf-stroke" data-item-order="-10368" data-item-id="ro_1q7lfrgpk7nrf" data-item-class="Shape Stroke Fill" data-item-index="none" data-renderer-id="0" transform="translate(146, 165)"><g id="ro_1q7lfrgpk7nrf-stroke" fill="none" stroke-linecap="round" stroke-linejoin="round" stroke-miterlimit="4" stroke="#93c131" stroke-width="2"><g><path d="M 22 10L 190 10C 190 10 202 10 202 22L 202 52C 202 52 202 64 190 64L 22 64C 22 64 10 64 10 52L 10 22C 10 22 10 10 22 10"></path></g></g></g><g id="g-root-tx__1qcl5akpksq32-stroke" data-item-order="0" data-item-id="tx__1qcl5akpksq32" data-item-class="Label Stroke" data-item-index="none" data-renderer-id="0" transform="translate(86, 81)"></g><g id="g-root-tx__14643rgpksq2v-stroke" data-item-order="0" data-item-id="tx__14643rgpksq2v" data-item-class="Label Stroke" data-item-index="none" data-renderer-id="0" transform="translate(404, 429.00006103515625)"></g><g id="g-root-tx__8yrwpk7o5f-stroke" data-item-order="0" data-item-id="tx__8yrwpk7o5f" data-item-class="Label Stroke" data-item-index="none" data-renderer-id="0" transform="translate(110, 30)"></g><g id="g-root-chat_743kcpksphg-stroke" data-item-order="0" data-item-id="chat_743kcpksphg" data-item-class="Icon Stroke" data-item-index="none" data-renderer-id="0" transform="translate(368, 339.00006103515625)"><g id="chat_743kcpksphg-stroke" fill="none" stroke-linecap="round" stroke-linejoin="round" stroke-miterlimit="4" stroke="#b65edf" stroke-width="2"><g><path d="M 35.625 21.875C 35.625 22.565 35.065 23.125 34.375 23.125L 29.375 23.125L 25.625 26.875L 25.625 23.125L 16.875 23.125C 16.185 23.125 15.625 22.565 15.625 21.875L 15.625 11.875C 15.625 11.185 16.185 10.625 16.875 10.625L 34.375 10.625C 35.065 10.625 35.625 11.185 35.625 11.875ZM 12.663 30.313C 12.663 32.211 14.202 33.75 16.1 33.75C 17.998 33.75 19.538 32.211 19.538 30.313C 19.538 28.414 17.998 26.875 16.1 26.875C 14.202 26.875 12.663 28.414 12.663 30.313M 21.575 39.375C 20.998 36.815 18.724 34.997 16.1 34.997C 13.476 34.997 11.202 36.815 10.625 39.375M 30.463 30.313C 30.463 32.211 32.002 33.75 33.9 33.75C 35.798 33.75 37.338 32.211 37.338 30.313C 37.338 28.414 35.798 26.875 33.9 26.875C 32.002 26.875 30.463 28.414 30.463 30.313M 39.375 39.375C 38.798 36.815 36.524 34.997 33.9 34.997C 31.276 34.997 29.002 36.815 28.425 39.375M 29.375 14.375L 31.875 16.875L 29.375 19.375M 21.875 14.375L 19.375 16.875L 21.875 19.375M 26.875 14.375L 24.375 19.375"></path></g></g></g><g id="g-root-tx__1lwrn64pksqvc-stroke" data-item-order="0" data-item-id="tx__1lwrn64pksqvc" data-item-class="Label Stroke" data-item-index="none" data-renderer-id="0" transform="translate(650, 69)"></g><g id="g-root-4_zqaln0pkrbwm-stroke" data-item-order="0" data-item-id="4_zqaln0pkrbwm" data-item-class="Icon Stroke" data-item-index="none" data-renderer-id="0" transform="translate(446, 90)"><g id="4_zqaln0pkrbwm-stroke" fill="none" stroke-linecap="round" stroke-linejoin="round" stroke-miterlimit="4" stroke="#484848" stroke-width="2"><g><path d="M 20.828 21L 30.16 32.586C 30.941 33.367 30.941 34.633 30.16 35.414L 20.828 47M 56.414 32.586C 57.195 33.367 57.195 34.633 56.414 35.414L 46.414 46.414C 46.039 46.789 45.53 47 45 47L 33.836 47L 45.422 35.414C 46.203 34.633 46.203 33.367 45.422 32.586L 33.836 21L 45 21C 45.53 21 46.039 21.211 46.414 21.586ZM 29 21L 20.828 21M 29 47L 20.828 47M 16 21L 11 21M 16 47L 11 47"></path></g></g></g><g id="g-root-tx__1lwrn64pksqvb-stroke" data-item-order="0" data-item-id="tx__1lwrn64pksqvb" data-item-class="Label Stroke" data-item-index="none" data-renderer-id="0" transform="translate(2, 117)"></g><g id="g-root-tx__1lwrn64pksqvd-stroke" data-item-order="0" data-item-id="tx__1lwrn64pksqvd" data-item-class="Label Stroke" data-item-index="none" data-renderer-id="0" transform="translate(650, 105)"></g><g id="g-root-tx_devex_14643rgpkrb4d-stroke" data-item-order="0" data-item-id="tx_devex_14643rgpkrb4d" data-item-class="Label Stroke" data-item-index="none" data-renderer-id="0" transform="translate(410, 144)"></g><g id="g-root-tx__m8lcekpksq2p-stroke" data-item-order="0" data-item-id="tx__m8lcekpksq2p" data-item-class="Label Stroke" data-item-index="none" data-renderer-id="0" transform="translate(650, 18)"></g><g id="g-root-2_1q6chl8pk7ll8-stroke" data-item-order="0" data-item-id="2_1q6chl8pk7ll8" data-item-class="Icon Stroke" data-item-index="none" data-renderer-id="0" transform="translate(296, 27)"><g id="2_1q6chl8pk7ll8-stroke" fill="none" stroke-linecap="round" stroke-linejoin="round" stroke-miterlimit="4" stroke="#4682e3" stroke-width="2"><g><path d="M 33.75 31.875L 36.875 31.875L 36.875 24.375C 36.875 22.994 35.756 21.875 34.375 21.875L 30.625 21.875L 30.625 14.83M 19.375 14.83L 19.375 21.875L 15.625 21.875C 14.244 21.875 13.125 22.994 13.125 24.375L 13.125 31.875L 16.25 31.875M 18.125 15.625L 25 11.25L 31.875 15.625M 22.5 18.75C 22.5 20.131 23.619 21.25 25 21.25C 26.381 21.25 27.5 20.131 27.5 18.75C 27.5 17.369 26.381 16.25 25 16.25C 23.619 16.25 22.5 17.369 22.5 18.75M 20 38.75L 22.5 28.75M 27.5 28.75L 30 38.75M 18.75 37.721L 31.25 37.721M 20 33.75L 30 33.75M 21.25 29.94L 28.75 29.94"></path></g></g></g><g id="g-root-brow_1upa9zgpksow0-stroke" data-item-order="0" data-item-id="brow_1upa9zgpksow0" data-item-class="Icon Stroke" data-item-index="none" data-renderer-id="0" transform="translate(614, 165)"><g id="brow_1upa9zgpksow0-stroke" fill="none" stroke-linecap="round" stroke-linejoin="round" stroke-miterlimit="4" stroke="#17b0e3" stroke-width="2"><g><path d="M 39.375 12.5C 39.375 11.81 38.815 11.25 38.125 11.25L 11.875 11.25C 11.185 11.25 10.625 11.81 10.625 12.5L 10.625 32.5C 10.625 33.19 11.185 33.75 11.875 33.75L 30 33.75L 30 38.75L 35 33.75L 38.125 33.75C 38.815 33.75 39.375 33.19 39.375 32.5ZM 14.375 31.25C 14.375 28.143 16.893 25.625 20 25.625C 23.107 25.625 25.625 28.143 25.625 31.25M 16.563 20.938C 16.563 22.836 18.102 24.375 20 24.375C 21.898 24.375 23.438 22.836 23.438 20.938C 23.438 19.039 21.898 17.5 20 17.5C 18.102 17.5 16.563 19.039 16.563 20.938ZM 27.46 26.23C 29.204 25.347 31.281 25.433 32.946 26.457C 34.611 27.481 35.625 29.295 35.625 31.25M 26.563 20.938C 26.563 22.836 28.102 24.375 30 24.375C 31.898 24.375 33.438 22.836 33.438 20.938C 33.438 19.039 31.898 17.5 30 17.5C 28.102 17.5 26.563 19.039 26.563 20.938Z"></path></g></g></g><g id="g-root-tx__4hxw5opk7mdl-stroke" data-item-order="0" data-item-id="tx__4hxw5opk7mdl" data-item-class="Label Stroke" data-item-index="none" data-renderer-id="0" transform="translate(158, 180)"></g><g id="g-root-incr_24e18pk7n5u-stroke" data-item-order="0" data-item-id="incr_24e18pk7n5u" data-item-class="Icon Stroke" data-item-index="none" data-renderer-id="0" transform="translate(296, 177)"><g id="incr_24e18pk7n5u-stroke" fill="none" stroke-linecap="round" stroke-linejoin="round" stroke-miterlimit="4" stroke="#93c131" stroke-width="2"><g><path d="M 10.63 39.063L 39.38 39.063M 15.625 39.063L 15.625 35.938C 15.625 35.592 15.345 35.313 15 35.313L 12.5 35.313C 12.155 35.313 11.875 35.592 11.875 35.938L 11.875 39.063M 23.125 39.063L 23.125 30.938C 23.125 30.592 22.845 30.313 22.5 30.313L 20 30.313C 19.655 30.313 19.375 30.592 19.375 30.938L 19.375 39.063M 30.625 39.063L 30.625 25.938C 30.625 25.592 30.345 25.313 30 25.313L 27.5 25.313C 27.155 25.313 26.875 25.592 26.875 25.938L 26.875 39.063M 38.125 39.063L 38.125 20.938C 38.125 20.592 37.845 20.313 37.5 20.313L 35 20.313C 34.655 20.313 34.375 20.592 34.375 20.938L 34.375 39.063M 13.755 26.563L 36.255 11.563M 35.63 16.563L 36.255 11.563L 31.255 10.938"></path></g></g></g><g id="g-root-tx__1q9grv0pksowf-stroke" data-item-order="0" data-item-id="tx__1q9grv0pksowf" data-item-class="Label Stroke" data-item-index="none" data-renderer-id="0" transform="translate(650, 168)"></g><g id="g-root-tx__4mxlospksop7-stroke" data-item-order="0" data-item-id="tx__4mxlospksop7" data-item-class="Label Stroke" data-item-index="none" data-renderer-id="0" transform="translate(404, 342.00006103515625)"></g><g id="g-root-1_dcyc5opksqve-stroke" data-item-order="0" data-item-id="1_dcyc5opksqve" data-item-class="Icon Stroke" data-item-index="none" data-renderer-id="0" transform="translate(614, 15)"><g id="1_dcyc5opksqve-stroke" fill="none" stroke-linecap="round" stroke-linejoin="round" stroke-miterlimit="4" stroke="#3bc482" stroke-width="2"><g><path d="M 21.25 12.5L 21.25 15M 22.5 13.75L 20 13.75M 30 36.25L 30 38.75M 31.25 37.5L 28.75 37.5M 38.75 27.5L 36.625 27.5C 35.728 27.5 35 28.228 35 29.125C 34.999 29.672 35.271 30.183 35.725 30.487L 38.025 32.013C 38.479 32.317 38.751 32.828 38.75 33.375C 38.75 34.272 38.022 35 37.125 35L 35 35M 37.5 27.5L 37.5 26.25M 36.25 36.25L 36.25 35M 15 12.5L 12.875 12.5C 11.978 12.5 11.25 13.228 11.25 14.125C 11.249 14.672 11.521 15.183 11.975 15.488L 14.275 17.013C 14.729 17.317 15.001 17.828 15 18.375C 15 19.272 14.272 20 13.375 20L 11.25 20M 13.75 12.5L 13.75 11.25M 12.5 21.25L 12.5 20M 20.525 23.887L 26.325 29.688M 18.263 36.25C 16.4 38.112 12.825 37.5 12.825 37.5C 12.825 37.5 12.163 33.925 14.075 32.063C 14.589 31.447 15.357 31.103 16.159 31.13C 16.96 31.156 17.704 31.551 18.175 32.2C 18.795 32.683 19.164 33.419 19.181 34.204C 19.198 34.99 18.861 35.741 18.262 36.25ZM 36.15 14.063C 25.55 13 22.4 20.488 18.65 27.313L 22.888 31.55C 29.725 27.787 37.213 24.662 36.15 14.063ZM 20.95 23.15L 19.313 22.6C 18.18 22.293 16.97 22.623 16.15 23.462L 14.387 25.225C 14.183 25.432 14.098 25.729 14.163 26.012C 14.243 26.278 14.465 26.476 14.738 26.525L 18.663 27.313M 27.1 29.25L 27.612 30.9C 27.919 32.033 27.589 33.243 26.75 34.063L 25 35.825C 24.801 36.034 24.505 36.12 24.225 36.05C 23.953 35.977 23.749 35.752 23.7 35.475L 22.913 31.55M 27.538 20.425C 27.538 21.668 28.545 22.675 29.788 22.675C 31.03 22.675 32.038 21.668 32.038 20.425C 32.038 19.182 31.03 18.175 29.788 18.175C 28.545 18.175 27.538 19.182 27.538 20.425"></path></g></g></g><g id="g-root-tx__18lxlvwpkspak-stroke" data-item-order="0" data-item-id="tx__18lxlvwpkspak" data-item-class="Label Stroke" data-item-index="none" data-renderer-id="0" transform="translate(2, 231)"></g><g id="g-root-tx__1hhkm4spksohv-stroke" data-item-order="0" data-item-id="tx__1hhkm4spksohv" data-item-class="Label Stroke" data-item-index="none" data-renderer-id="0" transform="translate(650, 279.00006103515625)"></g><g id="g-root-tx__18lxlvwpkspam-stroke" data-item-order="0" data-item-id="tx__18lxlvwpkspam" data-item-class="Label Stroke" data-item-index="none" data-renderer-id="0" transform="translate(404, 393.00006103515625)"></g><g id="g-root-tx__1hhkm4spksohu-stroke" data-item-order="0" data-item-id="tx__1hhkm4spksohu" data-item-class="Label Stroke" data-item-index="none" data-renderer-id="0" transform="translate(650, 219)"></g><g id="g-root-tx__18lxlvwpkspal-stroke" data-item-order="0" data-item-id="tx__18lxlvwpkspal" data-item-class="Label Stroke" data-item-index="none" data-renderer-id="0" transform="translate(2, 267.00006103515625)"></g><g id="g-root-cu_1lseeq4pk7ldz-stroke" data-item-order="2" data-item-id="cu_1lseeq4pk7ldz" data-item-class="Curve Stroke ColorFillGray ColorStrokeGray" data-item-index="none" data-renderer-id="0" transform="translate(554, 30)"><g id="cu_1lseeq4pk7ldz-stroke" fill="none" stroke-linecap="round" stroke-linejoin="round" stroke-miterlimit="4" stroke="#bbbbbb" stroke-width="2" stroke-dasharray="5.0, 7.0"><g><path d="M 10 104L 13 104L 13.1 104C 24.643 104 34 94.643 34 83.1L 34 83L 34 30.9C 34 19.357 43.357 10 54.9 10L 55 10L 58 10"></path></g></g></g><g id="g-root-cu_1q7lfrgpk7nrg-stroke" data-item-order="2" data-item-id="cu_1q7lfrgpk7nrg" data-item-class="Curve Stroke ColorFillGray ColorStrokeGray" data-item-index="none" data-renderer-id="0" transform="translate(338, 42)"><g id="cu_1q7lfrgpk7nrg-stroke" fill="none" stroke-linecap="round" stroke-linejoin="round" stroke-miterlimit="4" stroke="#bbbbbb" stroke-width="2" stroke-dasharray="5.0, 7.0"><g><path d="M 58 92L 55 92L 54.9 92C 43.357 92 34 82.643 34 71.1L 34 71L 34 30.9C 34 19.357 24.643 10 13.1 10L 13 10L 10 10"></path></g></g></g><g id="g-root-cu_1hckwlopk7m6j-stroke" data-item-order="2" data-item-id="cu_1hckwlopk7m6j" data-item-class="Curve Stroke ColorFillGray ColorStrokeGray" data-item-index="none" data-renderer-id="0" transform="translate(296, 69)"><g id="cu_1hckwlopk7m6j-stroke" fill="none" stroke-linecap="round" stroke-linejoin="round" stroke-miterlimit="4" stroke="#bbbbbb" stroke-width="2" stroke-dasharray="5.0, 7.0"><g><path d="M 28 10L 28 22L 28 34L 19 34L 10 34"></path></g></g></g><g id="g-root-cu_1cwreh8pk7myu-stroke" data-item-order="2" data-item-id="cu_1cwreh8pk7myu" data-item-class="Curve Stroke ColorFillGray ColorStrokeGray" data-item-index="none" data-renderer-id="0" transform="translate(296, 69)"><g id="cu_1cwreh8pk7myu-stroke" fill="none" stroke-linecap="round" stroke-linejoin="round" stroke-miterlimit="4" stroke="#bbbbbb" stroke-width="2" stroke-dasharray="5.0, 7.0"><g><path d="M 28 10L 28 17.5L 28 58C 28 64.627 22.627 70 16 70L 15.9 70L 10 70"></path></g></g></g><g id="g-root-cu_18gxwcspk7nr4-stroke" data-item-order="2" data-item-id="cu_18gxwcspk7nr4" data-item-class="Curve Stroke ColorFillGray ColorStrokeGray" data-item-index="none" data-renderer-id="0" transform="translate(626, 57)"><g id="cu_18gxwcspk7nr4-stroke" fill="none" stroke-linecap="round" stroke-linejoin="round" stroke-miterlimit="4" stroke="#bbbbbb" stroke-width="2" stroke-dasharray="5.0, 7.0"><g><path d="M 10 10L 10 22L 10 34L 19 34L 28 34"></path></g></g></g><g id="g-root-cu_18gxwcspk7nr7-stroke" data-item-order="2" data-item-id="cu_18gxwcspk7nr7" data-item-class="Curve Stroke ColorFillGray ColorStrokeGray" data-item-index="none" data-renderer-id="0" transform="translate(626, 57)"><g id="cu_18gxwcspk7nr7-stroke" fill="none" stroke-linecap="round" stroke-linejoin="round" stroke-miterlimit="4" stroke="#bbbbbb" stroke-width="2" stroke-dasharray="5.0, 7.0"><g><path d="M 10 10L 10 17.5L 10 58C 10 64.627 15.373 70 22 70L 22.1 70L 28 70"></path></g></g></g><g id="g-root-cu_1hckwlopk7m6d-stroke" data-item-order="2" data-item-id="cu_1hckwlopk7m6d" data-item-class="Curve Stroke ColorFillGray ColorStrokeGray" data-item-index="none" data-renderer-id="0" transform="translate(338, 182)"><g id="cu_1hckwlopk7m6d-stroke" fill="none" stroke-linecap="round" stroke-linejoin="round" stroke-miterlimit="4" stroke="#bbbbbb" stroke-width="2" stroke-dasharray="5.0, 7.0"><g><path d="M 58 10L 55 10L 54.9 10C 51.639 10.016 48.037 10.454 44.2 11.3C 41.965 11.745 38.362 13.052 34 15C 29.638 16.948 26.035 18.255 23.8 18.7C 19.963 19.546 16.361 19.984 13.1 20L 13 20L 10 20"></path></g></g></g><g id="g-root-cu_1lseeq4pk7le2-stroke" data-item-order="2" data-item-id="cu_1lseeq4pk7le2" data-item-class="Curve Stroke ColorFillGray ColorStrokeGray" data-item-index="none" data-renderer-id="0" transform="translate(554, 180)"><g id="cu_1lseeq4pk7le2-stroke" fill="none" stroke-linecap="round" stroke-linejoin="round" stroke-miterlimit="4" stroke="#bbbbbb" stroke-width="2" stroke-dasharray="5.0, 7.0"><g><path d="M 10 12L 13 12L 13.1 12C 16.281 11.981 19.797 11.881 23.6 11.7L 34 11L 44.4 10.3C 48.204 10.119 51.719 10.019 54.9 10L 55 10L 58 10"></path></g></g></g><g id="g-root-cu_141qvbgpk7ldu-stroke" data-item-order="2" data-item-id="cu_141qvbgpk7ldu" data-item-class="Curve Stroke ColorFillGray ColorStrokeGray" data-item-index="none" data-renderer-id="0" transform="translate(296, 219)"><g id="cu_141qvbgpk7ldu-stroke" fill="none" stroke-linecap="round" stroke-linejoin="round" stroke-miterlimit="4" stroke="#bbbbbb" stroke-width="2" stroke-dasharray="5.0, 7.0"><g><path d="M 28 10L 28 22L 28 34L 19 34L 10 34"></path></g></g></g><g id="g-root-cu_141qvbgpk7ldx-stroke" data-item-order="2" data-item-id="cu_141qvbgpk7ldx" data-item-class="Curve Stroke ColorFillGray ColorStrokeGray" data-item-index="none" data-renderer-id="0" transform="translate(296, 219)"><g id="cu_141qvbgpk7ldx-stroke" fill="none" stroke-linecap="round" stroke-linejoin="round" stroke-miterlimit="4" stroke="#bbbbbb" stroke-width="2" stroke-dasharray="5.0, 7.0"><g><path d="M 28 10L 28 17.5L 28 58C 28 64.627 22.627 70 16 70L 15.9 70L 10 70"></path></g></g></g><g id="g-root-cu_18gxwcspk7nr9-stroke" data-item-order="2" data-item-id="cu_18gxwcspk7nr9" data-item-class="Curve Stroke ColorFillGray ColorStrokeGray" data-item-index="none" data-renderer-id="0" transform="translate(626, 207)"><g id="cu_18gxwcspk7nr9-stroke" fill="none" stroke-linecap="round" stroke-linejoin="round" stroke-miterlimit="4" stroke="#bbbbbb" stroke-width="2" stroke-dasharray="5.0, 7.0"><g><path d="M 10 10L 10 28L 10 46L 19 46L 28 46"></path></g></g></g><g id="g-root-cu_141qvbgpk7lds-stroke" data-item-order="2" data-item-id="cu_141qvbgpk7lds" data-item-class="Curve Stroke ColorFillGray ColorStrokeGray" data-item-index="none" data-renderer-id="0" transform="translate(626, 207)"><g id="cu_141qvbgpk7lds-stroke" fill="none" stroke-linecap="round" stroke-linejoin="round" stroke-miterlimit="4" stroke="#bbbbbb" stroke-width="2" stroke-dasharray="5.0, 7.0"><g><path d="M 10 10L 10 20.5L 10 82C 10 88.627 15.373 94 22 94L 22.1 94L 28 94"></path></g></g></g><g id="g-root-cu_1hckwlopk7m6g-stroke" data-item-order="2" data-item-id="cu_1hckwlopk7m6g" data-item-class="Curve Stroke ColorFillGray ColorStrokeGray" data-item-index="none" data-renderer-id="0" transform="translate(470, 240)"><g id="cu_1hckwlopk7m6g-stroke" fill="none" stroke-linecap="round" stroke-linejoin="round" stroke-miterlimit="4" stroke="#bbbbbb" stroke-width="2" stroke-dasharray="5.0, 7.0"><g><path d="M 10 10L 10 53.5L 10 97"></path></g></g></g><g id="g-root-cu_v63v2kpk7m6n-stroke" data-item-order="2" data-item-id="cu_v63v2kpk7m6n" data-item-class="Curve Stroke ColorFillGray ColorStrokeGray" data-item-index="none" data-renderer-id="0" transform="translate(380, 381.00006103515625)"><g id="cu_v63v2kpk7m6n-stroke" fill="none" stroke-linecap="round" stroke-linejoin="round" stroke-miterlimit="4" stroke="#bbbbbb" stroke-width="2" stroke-dasharray="5.0, 7.0"><g><path d="M 10 10L 10 22L 10 34L 19 34L 28 34"></path></g></g></g><g id="g-root-cu_zlxd70pk7m6a-stroke" data-item-order="2" data-item-id="cu_zlxd70pk7m6a" data-item-class="Curve Stroke ColorFillGray ColorStrokeGray" data-item-index="none" data-renderer-id="0" transform="translate(380, 381.00006103515625)"><g id="cu_zlxd70pk7m6a-stroke" fill="none" stroke-linecap="round" stroke-linejoin="round" stroke-miterlimit="4" stroke="#bbbbbb" stroke-width="2" stroke-dasharray="5.0, 7.0"><g><path d="M 10 10L 10 17.5L 10 58C 10 64.627 15.373 70 22 70L 22.1 70L 28 70"></path></g></g></g></g></svg>